<?xml version="1.0" encoding="UTF-8" standalone="no"?>
<!-- Created with Inkscape (http://www.inkscape.org/) -->

<svg
   xmlns:dc="http://purl.org/dc/elements/1.1/"
   xmlns:cc="http://creativecommons.org/ns#"
   xmlns:rdf="http://www.w3.org/1999/02/22-rdf-syntax-ns#"
   xmlns:svg="http://www.w3.org/2000/svg"
   xmlns="http://www.w3.org/2000/svg"
   xmlns:xlink="http://www.w3.org/1999/xlink"
   xmlns:sodipodi="http://sodipodi.sourceforge.net/DTD/sodipodi-0.dtd"
   xmlns:inkscape="http://www.inkscape.org/namespaces/inkscape"
   width="210mm"
   height="297mm"
   viewBox="0 0 210 297"
   version="1.1"
   id="svg8"
   inkscape:version="0.92.1 r15371"
   sodipodi:docname="icons work.svg">
  <defs
     id="defs2">
    <clipPath
       id="clipPath4745"
       clipPathUnits="userSpaceOnUse">
      <g
         id="use4747"
         inkscape:label="Clip"
         transform="translate(-2.0863951e-7,-1.327926e-6)">
        <path
           style="display:inline;opacity:1;stroke-width:0.52916664"
           d="m 62.283387,109.26397 a 5.2916666,5.2916666 0 0 0 -5.291664,5.29168 5.2916666,5.2916666 0 0 0 5.291664,5.29166 5.2916666,5.2916666 0 0 0 5.291668,-5.29166 5.2916666,5.2916666 0 0 0 -5.291668,-5.29168 z m 0,1.05833 a 4.2333334,4.2333334 0 0 1 4.233334,4.23334 4.2333334,4.2333334 0 0 1 -4.233334,4.23332 4.2333334,4.2333334 0 0 1 -4.233334,-4.23332 4.2333334,4.2333334 0 0 1 4.233334,-4.23334 z"
           id="path5006"
           inkscape:connector-curvature="0" />
        <path
           style="display:inline;opacity:1;stroke-width:0.52916664"
           d="m 62.260059,115.3845 c 0.92604,0 1.740958,0.38628 2.217208,0.95778 l -0.751418,0.75142 c -0.238124,-0.381 -0.804332,-0.65088 -1.46579,-0.65088 -0.66146,0 -1.227668,0.26988 -1.465792,0.65088 l -0.751418,-0.75142 c 0.47625,-0.57149 1.291168,-0.95778 2.21721,-0.95778 z"
           id="path5008"
           inkscape:connector-curvature="0" />
        <path
           style="stroke-width:0.52916664"
           d="m 61.201725,113.2096 c 0,0.42334 -0.370416,0.79376 -0.79375,0.79376 -0.423332,0 -0.79375,-0.37042 -0.79375,-0.79376 v -0.79374 l 1.5875,0.79374"
           id="path5010"
           inkscape:connector-curvature="0" />
        <path
           style="fill:#000000;fill-opacity:1;stroke-width:0.52916664"
           d="m 64.905891,113.2096 c 0,0.42334 -0.370416,0.79376 -0.79375,0.79376 -0.423332,0 -0.79375,-0.37042 -0.79375,-0.79376 l 1.5875,-0.79374 v 0.79374"
           id="path5012"
           inkscape:connector-curvature="0" />
      </g>
    </clipPath>
    <clipPath
       id="clipPath4757"
       clipPathUnits="userSpaceOnUse">
      <use
         height="100%"
         width="100%"
         id="use4759"
         xlink:href="#g4753"
         y="0"
         x="0" />
    </clipPath>
    <clipPath
       id="clipPath4784"
       clipPathUnits="userSpaceOnUse">
      <use
         height="100%"
         width="100%"
         id="use4786"
         xlink:href="#g4780"
         y="0"
         x="0" />
    </clipPath>
    <clipPath
       id="clipPath4873"
       clipPathUnits="userSpaceOnUse">
      <g
         inkscape:label="Clip"
         id="use4875">
        <path
           inkscape:connector-curvature="0"
           id="path4678"
           d="m 30.899553,106.61812 a 2.6458333,2.6458333 0 0 0 -2.645833,2.64584 2.6458333,2.6458333 0 0 0 2.645833,2.64583 2.6458333,2.6458333 0 0 0 2.645834,-2.64583 2.6458333,2.6458333 0 0 0 -2.645834,-2.64584 z m 0,0.52917 a 2.1166667,2.1166667 0 0 1 2.116666,2.11667 2.1166667,2.1166667 0 0 1 -2.116666,2.11666 2.1166667,2.1166667 0 0 1 -2.116667,-2.11666 2.1166667,2.1166667 0 0 1 2.116667,-2.11667 z"
           style="display:inline;opacity:1;stroke-width:0.26458332" />
        <path
           inkscape:connector-curvature="0"
           id="path4680"
           d="m 30.358722,108.59094 c 0,0.21167 -0.185209,0.39688 -0.396875,0.39688 -0.211667,0 -0.396875,-0.18521 -0.396875,-0.39688 0,-0.21166 0.185208,-0.39687 0.396875,-0.39687 0.211666,0 0.396875,0.18521 0.396875,0.39687"
           style="display:inline;opacity:1;stroke-width:0.26458332" />
        <path
           inkscape:connector-curvature="0"
           id="path4682"
           d="m 32.210804,108.59094 c 0,0.21167 -0.185208,0.39688 -0.396875,0.39688 -0.211667,0 -0.396875,-0.18521 -0.396875,-0.39688 0,-0.21166 0.185208,-0.39687 0.396875,-0.39687 0.211667,0 0.396875,0.18521 0.396875,0.39687"
           style="display:inline;opacity:1;stroke-width:0.26458332" />
        <path
           inkscape:connector-curvature="0"
           id="path4684"
           d="m 31.445549,110.05585 c 0,0.40066 -0.243087,0.75124 -0.520898,0.75124 -0.277813,0 -0.520899,-0.35058 -0.520899,-0.75124 0,-0.40064 0.243086,-0.75122 0.520899,-0.75122 0.277811,0 0.520898,0.35058 0.520898,0.75122"
           style="display:inline;opacity:1;stroke-width:0.41703361" />
        <path
           inkscape:connector-curvature="0"
           id="path4686"
           d="m 29.996101,107.53762 c 0.218821,0 0.411385,0.0913 0.523922,0.22632 l -0.177559,0.17756 c -0.05627,-0.09 -0.190062,-0.1538 -0.346363,-0.1538 -0.156302,0 -0.290096,0.0638 -0.346364,0.1538 l -0.177559,-0.17756 c 0.112537,-0.13504 0.305101,-0.22632 0.523923,-0.22632 z"
           style="display:inline;opacity:1;stroke-width:0.12504114" />
        <path
           inkscape:connector-curvature="0"
           id="path4688"
           d="m 31.77377,107.50313 c 0.218821,0 0.411385,0.0913 0.523922,0.22632 l -0.177559,0.17756 c -0.05627,-0.09 -0.190062,-0.1538 -0.346363,-0.1538 -0.156302,0 -0.290096,0.0638 -0.346364,0.1538 l -0.177559,-0.17756 c 0.112537,-0.13504 0.3051,-0.22632 0.523923,-0.22632 z"
           style="display:inline;opacity:1;stroke-width:0.12504114" />
      </g>
    </clipPath>
  </defs>
  <sodipodi:namedview
     id="base"
     pagecolor="#ffffff"
     bordercolor="#666666"
     borderopacity="1.0"
     inkscape:pageopacity="0.0"
     inkscape:pageshadow="2"
     inkscape:zoom="2.8"
     inkscape:cx="280.22364"
     inkscape:cy="638.69171"
     inkscape:document-units="mm"
     inkscape:current-layer="g4619"
     showgrid="false"
     inkscape:window-width="3440"
     inkscape:window-height="1377"
     inkscape:window-x="1072"
     inkscape:window-y="127"
     inkscape:window-maximized="1" />
  <metadata
     id="metadata5">
    <rdf:RDF>
      <cc:Work
         rdf:about="">
        <dc:format>image/svg+xml</dc:format>
        <dc:type
           rdf:resource="http://purl.org/dc/dcmitype/StillImage" />
        <dc:title></dc:title>
      </cc:Work>
    </rdf:RDF>
  </metadata>
  <g
     inkscape:label="Layer 1"
     inkscape:groupmode="layer"
     id="layer1">
    <g
       id="g4619"
       transform="translate(64.291335,14.713902)">
      <g
         style="opacity:0.53500001"
         id="layer1-1"
         inkscape:label="Layer 1">
        <path
           style="stroke-width:0.26458332"
           inkscape:connector-curvature="0"
           d="m 16.630952,129.68884 c 0.61648,0 1.137709,-0.38629 1.352021,-0.92604 h -2.704041 c 0.211666,0.53975 0.735541,0.92604 1.35202,0.92604 m -0.926041,-1.71979 a 0.396875,0.396875 0 0 0 0.396875,-0.39688 0.396875,0.396875 0 0 0 -0.396875,-0.39687 0.396875,0.396875 0 0 0 -0.396875,0.39687 0.396875,0.396875 0 0 0 0.396875,0.39688 m 1.852083,0 a 0.396875,0.396875 0 0 0 0.396875,-0.39688 0.396875,0.396875 0 0 0 -0.396875,-0.39687 0.396875,0.396875 0 0 0 -0.396875,0.39687 0.396875,0.396875 0 0 0 0.396875,0.39688 m -0.926042,2.38125 a 2.1166667,2.1166667 0 0 1 -2.116666,-2.11667 2.1166667,2.1166667 0 0 1 2.116666,-2.11666 2.1166667,2.1166667 0 0 1 2.116667,2.11666 2.1166667,2.1166667 0 0 1 -2.116667,2.11667 m 0,-4.7625 c -1.463145,0 -2.645833,1.19062 -2.645833,2.64583 a 2.6458333,2.6458333 0 0 0 2.645833,2.64584 2.6458333,2.6458333 0 0 0 2.645834,-2.64584 2.6458333,2.6458333 0 0 0 -2.645834,-2.64583 z"
           id="path4485" />
        <path
           style="stroke-width:0.26458332"
           inkscape:connector-curvature="0"
           d="m 22.773065,129.46441 c 0.61648,0 1.137709,-0.38629 1.352021,-0.92604 h -2.704041 c 0.211666,0.53975 0.735541,0.92604 1.35202,0.92604 m -0.926041,-1.71979 a 0.396875,0.396875 0 0 0 0.396875,-0.39688 0.396875,0.396875 0 0 0 -0.396875,-0.39687 0.396875,0.396875 0 0 0 -0.396875,0.39687 0.396875,0.396875 0 0 0 0.396875,0.39688 m 1.852083,0 a 0.396875,0.396875 0 0 0 0.396875,-0.39688 0.396875,0.396875 0 0 0 -0.396875,-0.39687 0.396875,0.396875 0 0 0 -0.396875,0.39687 0.396875,0.396875 0 0 0 0.396875,0.39688 m -0.926042,2.38125 a 2.1166667,2.1166667 0 0 1 -2.116666,-2.11667 2.1166667,2.1166667 0 0 1 2.116666,-2.11666 2.1166667,2.1166667 0 0 1 2.116667,2.11666 2.1166667,2.1166667 0 0 1 -2.116667,2.11667 m 0,-4.7625 c -1.463145,0 -2.645833,1.19062 -2.645833,2.64583 a 2.6458333,2.6458333 0 0 0 2.645833,2.64584 2.6458333,2.6458333 0 0 0 2.645834,-2.64584 2.6458333,2.6458333 0 0 0 -2.645834,-2.64583 z"
           id="path4485-6" />
        <path
           style="fill:#ff0000;fill-opacity:1;stroke-width:0.26458332"
           inkscape:connector-curvature="0"
           d="m 9.5698847,127.99739 a 2.1166667,2.1166667 0 0 0 -2.116667,-2.11666 2.1166667,2.1166667 0 0 0 -2.116666,2.11666 2.1166667,2.1166667 0 0 0 2.116666,2.11667 2.1166667,2.1166667 0 0 0 2.116667,-2.11667 m 0.5291673,0 a 2.6458333,2.6458333 0 0 1 -2.6458343,2.64584 2.6458333,2.6458333 0 0 1 -2.645833,-2.64584 2.6458333,2.6458333 0 0 1 2.645833,-2.64583 2.6458333,2.6458333 0 0 1 2.6458343,2.64583 m -3.1750003,-0.66146 c 0,0.21167 -0.185209,0.39688 -0.396875,0.39688 -0.211667,0 -0.396875,-0.18521 -0.396875,-0.39688 0,-0.21166 0.185208,-0.39687 0.396875,-0.39687 0.211666,0 0.396875,0.18521 0.396875,0.39687 m 1.852083,0 c 0,0.21167 -0.185208,0.39688 -0.396875,0.39688 -0.211667,0 -0.396875,-0.18521 -0.396875,-0.39688 0,-0.21166 0.185208,-0.39687 0.396875,-0.39687 0.211667,0 0.396875,0.18521 0.396875,0.39687 m -1.322917,2.04523 c -0.46302,0 -0.870479,-0.19314 -1.108604,-0.47889 l 0.375709,-0.37571 c 0.119062,0.1905 0.402166,0.32544 0.732895,0.32544 0.33073,0 0.613834,-0.13494 0.732896,-0.32544 l 0.375709,0.37571 c -0.238125,0.28575 -0.645584,0.47889 -1.108605,0.47889 z"
           id="path4511" />
      </g>
      <ellipse
         style="display:inline;opacity:1;fill:#f6ff51;fill-opacity:1;stroke:none;stroke-width:0.11598136;stroke-miterlimit:4;stroke-dasharray:none;stroke-opacity:1;paint-order:fill markers stroke"
         id="path4602-4"
         cx="29.647507"
         cy="127.7021"
         rx="2.3387277"
         ry="2.3800685" />
      <path
         style="opacity:1;stroke-width:0.26458332"
         d="m 7.4648828,125.36311 a 2.6458333,2.6458333 0 0 0 -2.645833,2.64584 2.6458333,2.6458333 0 0 0 2.645833,2.64583 2.6458333,2.6458333 0 0 0 2.6458342,-2.64583 2.6458333,2.6458333 0 0 0 -2.6458342,-2.64584 z m 0,0.52917 a 2.1166667,2.1166667 0 0 1 2.116667,2.11667 2.1166667,2.1166667 0 0 1 -2.116667,2.11666 2.1166667,2.1166667 0 0 1 -2.116667,-2.11666 2.1166667,2.1166667 0 0 1 2.116667,-2.11667 z"
         id="path4543"
         inkscape:connector-curvature="0" />
      <path
         style="opacity:1;stroke-width:0.26458332"
         d="m 6.9240517,127.33593 c 0,0.21167 -0.185209,0.39688 -0.396875,0.39688 -0.211667,0 -0.396875,-0.18521 -0.396875,-0.39688 0,-0.21166 0.185208,-0.39687 0.396875,-0.39687 0.211666,0 0.396875,0.18521 0.396875,0.39687"
         id="path4541"
         inkscape:connector-curvature="0" />
      <path
         style="opacity:1;stroke-width:0.26458332"
         d="m 8.7761347,127.33593 c 0,0.21167 -0.185208,0.39688 -0.396875,0.39688 -0.211667,0 -0.396875,-0.18521 -0.396875,-0.39688 0,-0.21166 0.185208,-0.39687 0.396875,-0.39687 0.211667,0 0.396875,0.18521 0.396875,0.39687"
         id="path4539"
         inkscape:connector-curvature="0" />
      <path
         style="opacity:1;stroke-width:0.26458332"
         d="m 13.524461,123.8168 c 0.46302,0 0.870479,0.19314 1.108604,0.47889 l -0.375709,0.37571 c -0.119062,-0.1905 -0.402166,-0.32544 -0.732895,-0.32544 -0.33073,0 -0.613834,0.13494 -0.732896,0.32544 l -0.375709,-0.37571 c 0.238125,-0.28575 0.645584,-0.47889 1.108605,-0.47889 z"
         id="path4511-8"
         inkscape:connector-curvature="0" />
      <circle
         style="display:inline;opacity:1;fill:#f6ff51;fill-opacity:1;stroke:none;stroke-width:0.59109062;stroke-miterlimit:4;stroke-dasharray:none;stroke-opacity:1;paint-order:fill markers stroke"
         id="path4735-9"
         cx="55.377056"
         cy="99.698799"
         r="6.3499999"
         inkscape:export-filename="D:\Documents\School\Y3S1\CMPUT 301\A1\burghard-FeelsBook\icons\happy_icon.png"
         inkscape:export-xdpi="96"
         inkscape:export-ydpi="96" />
      <g
         id="g4782"
         clip-path="url(#clipPath4784)"
         transform="matrix(1.5,0,0,1.5,10.888078,-91.836647)"
         inkscape:export-filename="D:\Documents\School\Y3S1\CMPUT 301\A1\burghard-FeelsBook\icons\happy_icon.png"
         inkscape:export-xdpi="96"
         inkscape:export-ydpi="96">
        <g
           inkscape:label="Clip"
           id="g4780">
          <path
             inkscape:connector-curvature="0"
             id="path4543-2"
             d="m 29.659319,125.04446 a 2.6458333,2.6458333 0 0 0 -2.645833,2.64584 2.6458333,2.6458333 0 0 0 2.645833,2.64583 2.6458333,2.6458333 0 0 0 2.645834,-2.64583 2.6458333,2.6458333 0 0 0 -2.645834,-2.64584 z m 0,0.52917 a 2.1166667,2.1166667 0 0 1 2.116667,2.11667 2.1166667,2.1166667 0 0 1 -2.116667,2.11666 2.1166667,2.1166667 0 0 1 -2.116667,-2.11666 2.1166667,2.1166667 0 0 1 2.116667,-2.11667 z"
             style="display:inline;opacity:1;stroke-width:0.26458332" />
          <path
             inkscape:connector-curvature="0"
             id="path4541-0"
             d="m 29.118488,127.01728 c 0,0.21167 -0.185209,0.39688 -0.396875,0.39688 -0.211667,0 -0.396875,-0.18521 -0.396875,-0.39688 0,-0.21166 0.185208,-0.39687 0.396875,-0.39687 0.211666,0 0.396875,0.18521 0.396875,0.39687"
             style="display:inline;opacity:1;stroke-width:0.26458332" />
          <path
             inkscape:connector-curvature="0"
             id="path4539-8"
             d="m 30.970571,127.01728 c 0,0.21167 -0.185208,0.39688 -0.396875,0.39688 -0.211667,0 -0.396875,-0.18521 -0.396875,-0.39688 0,-0.21166 0.185208,-0.39687 0.396875,-0.39687 0.211667,0 0.396875,0.18521 0.396875,0.39687"
             style="display:inline;opacity:1;stroke-width:0.26458332" />
          <path
             inkscape:connector-curvature="0"
             id="path4511-8-4"
             d="m 29.647654,129.06251 c -0.46302,0 -0.870479,-0.19314 -1.108604,-0.47889 l 0.375709,-0.37571 c 0.119062,0.1905 0.402166,0.32544 0.732895,0.32544 0.33073,0 0.613834,-0.13494 0.732896,-0.32544 l 0.375709,0.37571 c -0.238125,0.28575 -0.645584,0.47889 -1.108605,0.47889 z"
             style="display:inline;opacity:1;stroke-width:0.26458332" />
        </g>
      </g>
      <ellipse
         style="opacity:1;fill:#51e8ff;fill-opacity:1;stroke:none;stroke-width:0.11598136;stroke-miterlimit:4;stroke-dasharray:none;stroke-opacity:1;paint-order:fill markers stroke"
         id="path4602"
         cx="26.930801"
         cy="133.20047"
         rx="2.3387277"
         ry="2.3800685" />
      <circle
         style="display:inline;opacity:1;fill:#51adff;fill-opacity:1;stroke:none;stroke-width:0.59109062;stroke-miterlimit:4;stroke-dasharray:none;stroke-opacity:1;paint-order:fill markers stroke"
         id="path4735-0"
         cx="82.118866"
         cy="121.99465"
         r="6.3499999"
         inkscape:export-filename="D:\Documents\School\Y3S1\CMPUT 301\A1\burghard-FeelsBook\icons\sad_icon.png"
         inkscape:export-xdpi="96"
         inkscape:export-ydpi="96" />
      <g
         id="g4755"
         clip-path="url(#clipPath4757)"
         transform="translate(7.9528552,6.3523634)"
         inkscape:export-filename="D:\Documents\School\Y3S1\CMPUT 301\A1\burghard-FeelsBook\icons\sad_icon.png"
         inkscape:export-xdpi="96"
         inkscape:export-ydpi="96">
        <g
           inkscape:label="Clip"
           id="g4753">
          <path
             inkscape:connector-curvature="0"
             id="path4543-5"
             d="m 74.166014,111.67353 a 3.96875,3.9687499 0 0 0 -3.96875,3.96876 3.96875,3.9687499 0 0 0 3.96875,3.96875 3.96875,3.9687499 0 0 0 3.968751,-3.96875 3.96875,3.9687499 0 0 0 -3.968751,-3.96876 z m 0,0.79376 a 3.1750001,3.175 0 0 1 3.175002,3.175 3.1750001,3.175 0 0 1 -3.175002,3.17499 3.1750001,3.175 0 0 1 -3.175001,-3.17499 3.1750001,3.175 0 0 1 3.175001,-3.175 z"
             style="display:inline;opacity:1;stroke-width:0.39687496" />
          <path
             inkscape:connector-curvature="0"
             id="path4541-1"
             d="m 73.354767,114.63276 c 0,0.31751 -0.277813,0.59532 -0.595312,0.59532 -0.317501,0 -0.595313,-0.27781 -0.595313,-0.59532 0,-0.31749 0.277812,-0.5953 0.595313,-0.5953 0.317499,0 0.595312,0.27781 0.595312,0.5953"
             style="display:inline;opacity:1;stroke-width:0.39687496" />
          <path
             inkscape:connector-curvature="0"
             id="path4539-2"
             d="m 76.132893,114.63276 c 0,0.31751 -0.277812,0.59532 -0.595312,0.59532 -0.317502,0 -0.595313,-0.27781 -0.595313,-0.59532 0,-0.31749 0.277811,-0.5953 0.595313,-0.5953 0.3175,0 0.595312,0.27781 0.595312,0.5953"
             style="display:inline;opacity:1;stroke-width:0.39687496" />
          <path
             inkscape:connector-curvature="0"
             id="path4511-8-5"
             d="m 74.148518,116.26394 c 0.694531,0 1.305718,0.28971 1.662906,0.71833 l -0.563562,0.56357 c -0.178593,-0.28575 -0.603251,-0.48816 -1.099344,-0.48816 -0.496095,0 -0.920751,0.20241 -1.099344,0.48816 l -0.563564,-0.56357 c 0.357188,-0.42862 0.968376,-0.71833 1.662908,-0.71833 z"
             style="display:inline;opacity:1;stroke-width:0.39687496" />
        </g>
      </g>
      <ellipse
         style="display:inline;opacity:1;fill:#ff5555;fill-opacity:1;stroke:none;stroke-width:0.11598136;stroke-miterlimit:4;stroke-dasharray:none;stroke-opacity:1;paint-order:fill markers stroke"
         id="path4602-7"
         cx="32.836681"
         cy="132.60399"
         rx="2.3387277"
         ry="2.3800685" />
      <path
         style="display:inline;opacity:1;stroke-width:0.35020667"
         d="m 2.1297752,127.66437 c 0,0.20064 -0.3423059,0.37621 -0.7335102,0.37621 -0.3912059,0 -0.73350991,-0.17557 -0.73350991,-0.37621 0,-0.20064 0.34230401,-0.3762 0.73350991,-0.3762 0.3912043,0 0.7335102,0.17556 0.7335102,0.3762"
         id="path4541-8"
         inkscape:connector-curvature="0" />
      <path
         style="display:inline;opacity:1;stroke-width:0.26458332"
         d="m 13.182066,126.43851 c 0,0.21167 -0.185208,0.39688 -0.396875,0.39688 -0.211667,0 -0.396875,-0.18521 -0.396875,-0.39688 0,-0.21166 0.185208,-0.39687 0.396875,-0.39687 0.211667,0 0.396875,0.18521 0.396875,0.39687"
         id="path4539-9"
         inkscape:connector-curvature="0" />
      <path
         style="display:inline;opacity:1;stroke-width:0.26458332"
         d="m 13.295312,128.32812 c 0,0.21167 -0.185208,0.39688 -0.396875,0.39688 -0.211667,0 -0.396875,-0.18521 -0.396875,-0.39688 0,-0.21166 0.185208,-0.39687 0.396875,-0.39687 0.211667,0 0.396875,0.18521 0.396875,0.39687"
         id="path4539-9-3"
         inkscape:connector-curvature="0" />
      <path
         style="stroke-width:0.26458332"
         d="m 64.931585,127.09971 a 2.1166667,2.1166667 0 0 0 -2.116667,-2.11667 2.1166667,2.1166667 0 0 0 -2.116666,2.11667 2.1166667,2.1166667 0 0 0 2.116666,2.11667 2.1166667,2.1166667 0 0 0 2.116667,-2.11667"
         id="path4707"
         inkscape:connector-curvature="0" />
      <path
         inkscape:connector-curvature="0"
         style="stroke-width:0.26458332"
         d="m 7.4532177,129.38116 c -0.46302,0 -0.870479,-0.19315 -1.108604,-0.4789 l 0.375709,-0.3757 c 0.119062,0.1905 0.402166,0.32543 0.732895,0.32543 0.33073,0 0.613834,-0.13493 0.732896,-0.32543 l 0.375709,0.3757 c -0.238125,0.28575 -0.645584,0.4789 -1.108605,0.4789 z"
         id="path4690" />
      <circle
         style="opacity:1;fill:#ff5555;fill-opacity:1;stroke:none;stroke-width:0.59109062;stroke-miterlimit:4;stroke-dasharray:none;stroke-opacity:1;paint-order:fill markers stroke"
         id="path4735"
         cx="51.971725"
         cy="115.75451"
         r="6.3499999"
         inkscape:export-filename="D:\Documents\School\Y3S1\CMPUT 301\A1\burghard-FeelsBook\icons\angry_icon.png"
         inkscape:export-xdpi="96"
         inkscape:export-ydpi="96" />
      <path
         inkscape:connector-curvature="0"
         id="path4543-9"
         d="m 51.971726,111.78576 a 3.96875,3.96875 0 0 0 -3.968748,3.96876 3.96875,3.96875 0 0 0 3.968748,3.96874 3.96875,3.96875 0 0 0 3.968751,-3.96874 3.96875,3.96875 0 0 0 -3.968751,-3.96876 z m 0,0.79374 a 3.1750001,3.1750001 0 0 1 3.175,3.17501 3.1750001,3.1750001 0 0 1 -3.175,3.17499 3.1750001,3.1750001 0 0 1 -3.175001,-3.17499 3.1750001,3.1750001 0 0 1 3.175001,-3.17501 z"
         style="display:inline;opacity:1;stroke-width:0.39687496"
         inkscape:export-filename="D:\Documents\School\Y3S1\CMPUT 301\A1\burghard-FeelsBook\icons\angry_icon.png"
         inkscape:export-xdpi="96"
         inkscape:export-ydpi="96" />
      <path
         inkscape:connector-curvature="0"
         id="path4511-8-58"
         d="m 51.95423,116.37615 c 0.69453,0 1.305718,0.28971 1.662906,0.71834 l -0.563564,0.56356 c -0.178593,-0.28575 -0.603249,-0.48816 -1.099342,-0.48816 -0.496095,0 -0.920751,0.20241 -1.099344,0.48816 l -0.563564,-0.56356 c 0.357188,-0.42862 0.968376,-0.71834 1.662908,-0.71834 z"
         style="display:inline;opacity:1;stroke-width:0.39687496"
         inkscape:export-filename="D:\Documents\School\Y3S1\CMPUT 301\A1\burghard-FeelsBook\icons\angry_icon.png"
         inkscape:export-xdpi="96"
         inkscape:export-ydpi="96" />
      <path
         inkscape:connector-curvature="0"
         id="path4705"
         d="m 51.160479,114.74498 c 0,0.3175 -0.277812,0.59532 -0.595312,0.59532 -0.317499,0 -0.595313,-0.27782 -0.595313,-0.59532 v -0.59531 l 1.190625,0.59531"
         style="stroke-width:0.39687496"
         inkscape:export-filename="D:\Documents\School\Y3S1\CMPUT 301\A1\burghard-FeelsBook\icons\angry_icon.png"
         inkscape:export-xdpi="96"
         inkscape:export-ydpi="96" />
      <path
         inkscape:connector-curvature="0"
         id="path4703"
         d="m 53.938604,114.74498 c 0,0.3175 -0.277812,0.59532 -0.595313,0.59532 -0.317499,0 -0.595312,-0.27782 -0.595312,-0.59532 l 1.190625,-0.59531 v 0.59531"
         style="fill:#000000;fill-opacity:1;stroke-width:0.39687496"
         inkscape:export-filename="D:\Documents\School\Y3S1\CMPUT 301\A1\burghard-FeelsBook\icons\angry_icon.png"
         inkscape:export-xdpi="96"
         inkscape:export-ydpi="96" />
      <path
         style="display:inline;opacity:1;stroke-width:0.12504114"
         d="m 4.7706958,124.91932 c -0.1547302,0.15473 -0.3554522,0.22634 -0.5305015,0.21044 l -8e-7,-0.25111 c 0.1034271,0.0239 0.2431473,-0.0256 0.353669,-0.13616 0.1105221,-0.11052 0.1600153,-0.25024 0.1361634,-0.35367 h 0.2511069 c 0.015912,0.17506 -0.055706,0.37577 -0.210437,0.5305 z"
         id="path4511-8-0"
         inkscape:connector-curvature="0" />
      <path
         style="display:inline;opacity:1;stroke-width:0.12504114"
         d="m 9.6662888,124.26677 c -0.1547302,-0.15473 -0.2263345,-0.35545 -0.2104367,-0.5305 h 0.251107 c -0.023852,0.10343 0.025641,0.24315 0.136163,0.35367 0.110522,0.11052 0.2502419,0.16002 0.3536689,0.13616 l 0,0.25111 c -0.175064,0.0159 -0.3757716,-0.0557 -0.5305022,-0.21044 z"
         id="path4511-8-0-0"
         inkscape:connector-curvature="0" />
      <circle
         style="display:inline;opacity:1;fill:#ff9955;fill-opacity:1;stroke:none;stroke-width:0.59109062;stroke-miterlimit:4;stroke-dasharray:none;stroke-opacity:1;paint-order:fill markers stroke"
         id="path4735-2"
         cx="37.575558"
         cy="106.40549"
         r="6.3499999"
         inkscape:export-filename="D:\Documents\School\Y3S1\CMPUT 301\A1\burghard-FeelsBook\icons\surprised_icon.png"
         inkscape:export-xdpi="96"
         inkscape:export-ydpi="96" />
      <path
         inkscape:connector-curvature="0"
         id="path4543-0"
         d="m 37.575557,102.43675 a 3.96875,3.96875 0 0 0 -3.968749,3.96876 3.96875,3.96875 0 0 0 3.968749,3.96874 3.96875,3.96875 0 0 0 3.968751,-3.96874 3.96875,3.96875 0 0 0 -3.968751,-3.96876 z m 0,0.79375 a 3.1750001,3.1750001 0 0 1 3.174999,3.17501 3.1750001,3.1750001 0 0 1 -3.174999,3.17499 3.1750001,3.1750001 0 0 1 -3.175001,-3.17499 3.1750001,3.1750001 0 0 1 3.175001,-3.17501 z"
         style="display:inline;opacity:1;stroke-width:0.39687496" />
      <path
         inkscape:connector-curvature="0"
         id="path4541-2"
         d="m 36.76431,105.39598 c 0,0.3175 -0.277813,0.59532 -0.595312,0.59532 -0.317501,0 -0.595313,-0.27782 -0.595313,-0.59532 0,-0.31749 0.277812,-0.59531 0.595313,-0.59531 0.317499,0 0.595312,0.27782 0.595312,0.59531"
         style="display:inline;opacity:1;stroke-width:0.39687496" />
      <path
         inkscape:connector-curvature="0"
         id="path4539-5"
         d="m 39.542434,105.39598 c 0,0.3175 -0.277813,0.59532 -0.595313,0.59532 -0.3175,0 -0.595313,-0.27782 -0.595313,-0.59532 0,-0.31749 0.277813,-0.59531 0.595313,-0.59531 0.3175,0 0.595313,0.27782 0.595313,0.59531"
         style="display:inline;opacity:1;stroke-width:0.39687496" />
      <path
         inkscape:connector-curvature="0"
         id="path4541-8-9"
         d="m 38.630786,107.59334 c 0,0.60099 -0.474873,1.12686 -1.017582,1.12686 -0.542711,0 -1.017583,-0.52587 -1.017583,-1.12686 0,-0.60096 0.474872,-1.12683 1.017583,-1.12683 0.542709,0 1.017582,0.52587 1.017582,1.12683"
         style="display:inline;opacity:1;stroke-width:0.7138797" />
      <path
         style="opacity:1;vector-effect:none;fill:#ff0202;fill-opacity:0.55813958;stroke:#000000;stroke-width:0.5291667;stroke-linecap:round;stroke-linejoin:miter;stroke-miterlimit:4;stroke-dasharray:none;stroke-dashoffset:0;stroke-opacity:1"
         d="m 10.784529,127.37377 c 0.71179,-0.20584 0.789238,-0.21218 1.498797,-0.003"
         id="path4895"
         inkscape:connector-curvature="0"
         sodipodi:nodetypes="cc" />
      <circle
         style="display:inline;opacity:1;fill:#383838;fill-opacity:1;stroke:none;stroke-width:0.59109062;stroke-miterlimit:4;stroke-dasharray:none;stroke-opacity:1;paint-order:fill markers stroke"
         id="path4735-0-1"
         cx="69.453125"
         cy="116.09115"
         r="6.3499999"
         inkscape:export-filename="D:\Documents\School\Y3S1\CMPUT 301\A1\burghard-FeelsBook\icons\sad_icon.png"
         inkscape:export-xdpi="96"
         inkscape:export-ydpi="96" />
      <path
         style="display:inline;opacity:1;fill:#ffffff;fill-opacity:1;stroke-width:0.39687499"
         d="m 69.453124,112.12239 a 3.96875,3.9687499 0 0 0 -3.96875,3.96876 3.96875,3.9687499 0 0 0 3.96875,3.96875 3.96875,3.9687499 0 0 0 3.968752,-3.96875 3.96875,3.9687499 0 0 0 -3.968752,-3.96876 z m 0,0.79376 a 3.1750001,3.1750001 0 0 1 3.175,3.175 3.1750001,3.1750001 0 0 1 -3.175,3.17499 3.1750001,3.1750001 0 0 1 -3.175001,-3.17499 3.1750001,3.1750001 0 0 1 3.175001,-3.175 z"
         id="path4543-21"
         inkscape:connector-curvature="0"
         inkscape:export-filename="D:\Documents\School\Y3S1\CMPUT 301\A1\burghard-FeelsBook\icons\sad_icon.png"
         inkscape:export-xdpi="96"
         inkscape:export-ydpi="96" />
      <path
         style="display:inline;opacity:1;vector-effect:none;fill:#ffffff;fill-opacity:1;stroke:#fcfcfc;stroke-width:1.030653;stroke-linecap:round;stroke-linejoin:miter;stroke-miterlimit:4;stroke-dasharray:none;stroke-dashoffset:0;stroke-opacity:1"
         d="m 68.436568,117.57849 c 0.826251,-0.27043 1.440382,-0.25206 2.112892,-0.007"
         id="path4895-5"
         inkscape:connector-curvature="0"
         sodipodi:nodetypes="cc"
         inkscape:export-filename="D:\Documents\School\Y3S1\CMPUT 301\A1\burghard-FeelsBook\icons\sad_icon.png"
         inkscape:export-xdpi="96"
         inkscape:export-ydpi="96" />
      <path
         inkscape:connector-curvature="0"
         id="path4705-5"
         d="m 71.420002,115.08162 c 0,0.3175 -0.277812,0.59532 -0.595312,0.59532 -0.317499,0 -0.595313,-0.27782 -0.595313,-0.59532 v -0.59531 l 1.190625,0.59531"
         style="display:inline;fill:#ffffff;fill-opacity:1;stroke-width:0.39687496"
         inkscape:export-filename="D:\Documents\School\Y3S1\CMPUT 301\A1\burghard-FeelsBook\icons\sad_icon.png"
         inkscape:export-xdpi="96"
         inkscape:export-ydpi="96" />
      <path
         inkscape:connector-curvature="0"
         id="path4703-6"
         d="m 68.641877,115.08162 c 0,0.3175 -0.277812,0.59532 -0.595313,0.59532 -0.317499,0 -0.595312,-0.27782 -0.595312,-0.59532 l 1.190625,-0.59531 v 0.59531"
         style="display:inline;fill:#ffffff;fill-opacity:1;stroke-width:0.39687496"
         inkscape:export-filename="D:\Documents\School\Y3S1\CMPUT 301\A1\burghard-FeelsBook\icons\sad_icon.png"
         inkscape:export-xdpi="96"
         inkscape:export-ydpi="96" />
      <path
         style="stroke-width:0.10432357"
         d="m 6.538301,127.80196 c 0.3442675,-0.31297 0.5216177,-0.47364 0.5216177,-0.67707 0,-0.15648 -0.1304046,-0.28063 -0.2868894,-0.28063 -0.089719,0 -0.1752641,0.0374 -0.2347283,0.10437 -0.059466,-0.0668 -0.1450096,-0.10437 -0.2409877,-0.10437 -0.1564848,0 -0.2806304,0.1304 -0.2806304,0.28688 0,0.19718 0.1773502,0.35785 0.5216181,0.67082"
         id="path4715"
         inkscape:connector-curvature="0" />
      <path
         style="stroke-width:0.26458332"
         d="m -1.7642453,111.86608 c -0.79375,-0.87312 -1.201209,-1.32291 -1.717146,-1.32291 -0.3968745,0 -0.7117285,0.33073 -0.7117285,0.7276 0,0.22754 0.09525,0.4445 0.264583,0.59531 -0.169333,0.15082 -0.264583,0.36777 -0.264583,0.61119 0,0.39688 0.330729,0.71173 0.7276035,0.71173 0.500062,0 0.907521,-0.44979 1.701271,-1.32292"
         id="path4713"
         inkscape:connector-curvature="0" />
      <path
         style="stroke-width:0.26458332"
         d="m -1.3276833,111.86608 c 0.791104,0.87313 1.198563,1.32292 1.7145,1.32292 0.396875,0 0.711729,-0.33073 0.711729,-0.7276 0,-0.22755 -0.09525,-0.4445 -0.264583,-0.59532 0.169333,-0.15081 0.264583,-0.36777 0.264583,-0.61118 0,-0.39688 -0.330729,-0.71173 -0.727604,-0.71173 -0.500062,0 -0.907521,0.44979 -1.698625,1.32291"
         id="path4711"
         inkscape:connector-curvature="0" />
      <path
         style="stroke-width:0.26458332"
         d="m -1.5472873,112.08304 c -0.873125,0.79375 -1.322917,1.20121 -1.322917,1.71715 0,0.39687 0.330729,0.71173 0.727604,0.71173 0.227542,0 0.4445,-0.0953 0.595313,-0.26459 0.150812,0.16934 0.367771,0.26459 0.611187,0.26459 0.396875,0 0.71173,-0.33073 0.71173,-0.72761 0,-0.50006 -0.449792,-0.90752 -1.322917,-1.70127 z"
         id="path4698"
         inkscape:connector-curvature="0" />
      <path
         style="opacity:1;stroke-width:0.26458332"
         d="m 19.855941,117.37875 a 2.6458333,2.6458333 0 0 0 -2.645833,2.64584 2.6458333,2.6458333 0 0 0 2.645833,2.64583 2.6458333,2.6458333 0 0 0 2.645834,-2.64583 2.6458333,2.6458333 0 0 0 -2.645834,-2.64584 z m 0,0.52917 a 2.1166667,2.1166667 0 0 1 2.116667,2.11667 2.1166667,2.1166667 0 0 1 -2.116667,2.11666 2.1166667,2.1166667 0 0 1 -2.116667,-2.11666 2.1166667,2.1166667 0 0 1 2.116667,-2.11667 z"
         id="path4543-1"
         inkscape:connector-curvature="0" />
      <path
         inkscape:connector-curvature="0"
         style="stroke-width:0.26458332"
         d="m 19.844276,121.3968 c -0.46302,0 -0.870479,-0.19315 -1.108604,-0.4789 l 0.375709,-0.3757 c 0.119062,0.1905 0.402166,0.32543 0.732895,0.32543 0.33073,0 0.613834,-0.13493 0.732896,-0.32543 l 0.375709,0.3757 c -0.238125,0.28575 -0.645584,0.4789 -1.108605,0.4789 z"
         id="path4690-6" />
      <path
         style="stroke-width:0.08885669"
         d="m 18.91049,119.75077 c 0.293227,-0.26657 0.444283,-0.40342 0.444283,-0.57669 0,-0.13328 -0.111071,-0.23902 -0.244355,-0.23902 -0.07642,0 -0.14928,0.0319 -0.199928,0.0889 -0.05065,-0.0569 -0.123511,-0.0889 -0.205259,-0.0889 -0.133285,0 -0.239025,0.11107 -0.239025,0.24435 0,0.16794 0.151057,0.30479 0.444284,0.57136"
         id="path4715-1"
         inkscape:connector-curvature="0" />
      <path
         style="stroke-width:0.08885669"
         d="m 20.755275,119.73503 c 0.293227,-0.26657 0.444283,-0.40342 0.444283,-0.57669 0,-0.13328 -0.111071,-0.23902 -0.244356,-0.23902 -0.07642,0 -0.149279,0.0319 -0.199927,0.0889 -0.05065,-0.0569 -0.123511,-0.0889 -0.205259,-0.0889 -0.133285,0 -0.239025,0.11107 -0.239025,0.24435 0,0.16794 0.151057,0.30479 0.444284,0.57136"
         id="path4715-9-0"
         inkscape:connector-curvature="0" />
      <path
         style="stroke-width:0.10432357"
         d="m 8.3892723,127.80708 c 0.344268,-0.31297 0.521618,-0.47364 0.521618,-0.67707 0,-0.15648 -0.130405,-0.28063 -0.28689,-0.28063 -0.08972,0 -0.175264,0.0374 -0.234728,0.10437 -0.05947,-0.0668 -0.14501,-0.10437 -0.240988,-0.10437 -0.156484,0 -0.28063,0.1304 -0.28063,0.28688 0,0.19718 0.17735,0.35785 0.521618,0.67082"
         id="path4715-0"
         inkscape:connector-curvature="0" />
      <circle
         style="display:inline;opacity:1;fill:#ff80d6;fill-opacity:1;stroke:none;stroke-width:0.59109062;stroke-miterlimit:4;stroke-dasharray:none;stroke-opacity:1;paint-order:fill markers stroke"
         id="path4735-2-8"
         cx="20.867418"
         cy="106.6232"
         r="6.3499999"
         inkscape:export-filename="D:\Documents\School\Y3S1\CMPUT 301\A1\burghard-FeelsBook\icons\surprised_icon.png"
         inkscape:export-xdpi="96"
         inkscape:export-ydpi="96" />
      <path
         style="opacity:1;stroke-width:0.39687496"
         d="m 20.867417,102.65445 a 3.96875,3.96875 0 0 0 -3.968749,3.96876 3.96875,3.96875 0 0 0 3.968749,3.96874 3.96875,3.96875 0 0 0 3.968753,-3.96874 3.96875,3.96875 0 0 0 -3.968753,-3.96876 z m 0,0.79375 a 3.1750001,3.1750001 0 0 1 3.175002,3.17501 3.1750001,3.1750001 0 0 1 -3.175002,3.17499 3.1750001,3.1750001 0 0 1 -3.175001,-3.17499 3.1750001,3.1750001 0 0 1 3.175001,-3.17501 z"
         id="path4543-6"
         inkscape:connector-curvature="0" />
      <path
         inkscape:connector-curvature="0"
         style="stroke-width:0.39687496"
         d="m 20.849919,108.68152 c -0.69453,0 -1.305718,-0.28972 -1.662906,-0.71835 l 0.563564,-0.56355 c 0.178593,0.28575 0.603249,0.48815 1.099342,0.48815 0.496097,0 0.920753,-0.2024 1.099346,-0.48815 l 0.563564,0.56355 c -0.357188,0.42863 -0.968376,0.71835 -1.66291,0.71835 z"
         id="path4690-2" />
      <path
         style="stroke-width:0.15648536"
         d="m 19.477544,106.31272 c 0.516402,-0.46945 0.782427,-0.71046 0.782427,-1.0156 0,-0.23472 -0.195607,-0.42095 -0.430333,-0.42095 -0.13458,0 -0.262898,0.0561 -0.352094,0.15656 -0.08921,-0.1002 -0.217514,-0.15656 -0.36148,-0.15656 -0.234728,0 -0.420947,0.1956 -0.420947,0.43032 0,0.29577 0.266025,0.53678 0.782427,1.00623"
         id="path4715-9"
         inkscape:connector-curvature="0" />
      <path
         style="stroke-width:0.15648536"
         d="m 22.254002,106.3204 c 0.516404,-0.46945 0.782429,-0.71046 0.782429,-1.0156 0,-0.23472 -0.195608,-0.42095 -0.430337,-0.42095 -0.13458,0 -0.262896,0.0561 -0.352092,0.15656 -0.0892,-0.1002 -0.217515,-0.15656 -0.361481,-0.15656 -0.234726,0 -0.420944,0.1956 -0.420944,0.43032 0,0.29577 0.266025,0.53678 0.782425,1.00623"
         id="path4715-0-0"
         inkscape:connector-curvature="0" />
    </g>
  </g>
</svg>
