<?xml version="1.0" encoding="UTF-8" standalone="no"?>
<!-- Created with Inkscape (http://www.inkscape.org/) -->

<svg
   xmlns:dc="http://purl.org/dc/elements/1.1/"
   xmlns:cc="http://creativecommons.org/ns#"
   xmlns:rdf="http://www.w3.org/1999/02/22-rdf-syntax-ns#"
   xmlns:svg="http://www.w3.org/2000/svg"
   xmlns="http://www.w3.org/2000/svg"
   xmlns:xlink="http://www.w3.org/1999/xlink"
   xmlns:sodipodi="http://sodipodi.sourceforge.net/DTD/sodipodi-0.dtd"
   xmlns:inkscape="http://www.inkscape.org/namespaces/inkscape"
   width="210mm"
   height="297mm"
   viewBox="0 0 210 297"
   version="1.1"
   id="svg8"
   inkscape:version="0.92.1 r15371"
   sodipodi:docname="icons work.svg">
  <defs
     id="defs2">
    <clipPath
       clipPathUnits="userSpaceOnUse"
       id="clipPath4745">
      <g
         transform="translate(-2.0863951e-7,-1.327926e-6)"
         inkscape:label="Clip"
         id="use4747">
        <path
           inkscape:connector-curvature="0"
           id="path5006"
           d="m 62.283387,109.26397 a 5.2916666,5.2916666 0 0 0 -5.291664,5.29168 5.2916666,5.2916666 0 0 0 5.291664,5.29166 5.2916666,5.2916666 0 0 0 5.291668,-5.29166 5.2916666,5.2916666 0 0 0 -5.291668,-5.29168 z m 0,1.05833 a 4.2333334,4.2333334 0 0 1 4.233334,4.23334 4.2333334,4.2333334 0 0 1 -4.233334,4.23332 4.2333334,4.2333334 0 0 1 -4.233334,-4.23332 4.2333334,4.2333334 0 0 1 4.233334,-4.23334 z"
           style="display:inline;opacity:1;stroke-width:0.52916664" />
        <path
           inkscape:connector-curvature="0"
           id="path5008"
           d="m 62.260059,115.3845 c 0.92604,0 1.740958,0.38628 2.217208,0.95778 l -0.751418,0.75142 c -0.238124,-0.381 -0.804332,-0.65088 -1.46579,-0.65088 -0.66146,0 -1.227668,0.26988 -1.465792,0.65088 l -0.751418,-0.75142 c 0.47625,-0.57149 1.291168,-0.95778 2.21721,-0.95778 z"
           style="display:inline;opacity:1;stroke-width:0.52916664" />
        <path
           inkscape:connector-curvature="0"
           id="path5010"
           d="m 61.201725,113.2096 c 0,0.42334 -0.370416,0.79376 -0.79375,0.79376 -0.423332,0 -0.79375,-0.37042 -0.79375,-0.79376 v -0.79374 l 1.5875,0.79374"
           style="stroke-width:0.52916664" />
        <path
           inkscape:connector-curvature="0"
           id="path5012"
           d="m 64.905891,113.2096 c 0,0.42334 -0.370416,0.79376 -0.79375,0.79376 -0.423332,0 -0.79375,-0.37042 -0.79375,-0.79376 l 1.5875,-0.79374 v 0.79374"
           style="fill:#000000;fill-opacity:1;stroke-width:0.52916664" />
      </g>
    </clipPath>
    <clipPath
       clipPathUnits="userSpaceOnUse"
       id="clipPath4757">
      <use
         x="0"
         y="0"
         xlink:href="#g4753"
         id="use4759"
         width="100%"
         height="100%" />
    </clipPath>
    <clipPath
       clipPathUnits="userSpaceOnUse"
       id="clipPath4784">
      <use
         x="0"
         y="0"
         xlink:href="#g4780"
         id="use4786"
         width="100%"
         height="100%" />
    </clipPath>
    <clipPath
       clipPathUnits="userSpaceOnUse"
       id="clipPath4873">
      <use
         x="0"
         y="0"
         xlink:href="#g4869"
         id="use4875"
         width="100%"
         height="100%" />
    </clipPath>
  </defs>
  <sodipodi:namedview
     id="base"
     pagecolor="#ffffff"
     bordercolor="#666666"
     borderopacity="1.0"
     inkscape:pageopacity="0.0"
     inkscape:pageshadow="2"
     inkscape:zoom="3.959798"
     inkscape:cx="115.79869"
     inkscape:cy="703.4653"
     inkscape:document-units="mm"
     inkscape:current-layer="layer2"
     showgrid="false"
     inkscape:measure-start="35.4018,654.866"
     inkscape:measure-end="34.5536,651.161"
     inkscape:window-width="3440"
     inkscape:window-height="1377"
     inkscape:window-x="1072"
     inkscape:window-y="127"
     inkscape:window-maximized="1" />
  <metadata
     id="metadata5">
    <rdf:RDF>
      <cc:Work
         rdf:about="">
        <dc:format>image/svg+xml</dc:format>
        <dc:type
           rdf:resource="http://purl.org/dc/dcmitype/StillImage" />
        <dc:title></dc:title>
      </cc:Work>
    </rdf:RDF>
  </metadata>
  <g
     inkscape:label="Layer 1"
     inkscape:groupmode="layer"
     id="layer1"
     style="opacity:0.535">
    <path
       id="path4485"
       d="m 16.630952,129.68884 c 0.61648,0 1.137709,-0.38629 1.352021,-0.92604 h -2.704041 c 0.211666,0.53975 0.735541,0.92604 1.35202,0.92604 m -0.926041,-1.71979 a 0.396875,0.396875 0 0 0 0.396875,-0.39688 0.396875,0.396875 0 0 0 -0.396875,-0.39687 0.396875,0.396875 0 0 0 -0.396875,0.39687 0.396875,0.396875 0 0 0 0.396875,0.39688 m 1.852083,0 a 0.396875,0.396875 0 0 0 0.396875,-0.39688 0.396875,0.396875 0 0 0 -0.396875,-0.39687 0.396875,0.396875 0 0 0 -0.396875,0.39687 0.396875,0.396875 0 0 0 0.396875,0.39688 m -0.926042,2.38125 a 2.1166667,2.1166667 0 0 1 -2.116666,-2.11667 2.1166667,2.1166667 0 0 1 2.116666,-2.11666 2.1166667,2.1166667 0 0 1 2.116667,2.11666 2.1166667,2.1166667 0 0 1 -2.116667,2.11667 m 0,-4.7625 c -1.463145,0 -2.645833,1.19062 -2.645833,2.64583 a 2.6458333,2.6458333 0 0 0 2.645833,2.64584 2.6458333,2.6458333 0 0 0 2.645834,-2.64584 2.6458333,2.6458333 0 0 0 -2.645834,-2.64583 z"
       inkscape:connector-curvature="0"
       style="stroke-width:0.26458332" />
    <path
       id="path4485-6"
       d="m 22.773065,129.46441 c 0.61648,0 1.137709,-0.38629 1.352021,-0.92604 h -2.704041 c 0.211666,0.53975 0.735541,0.92604 1.35202,0.92604 m -0.926041,-1.71979 a 0.396875,0.396875 0 0 0 0.396875,-0.39688 0.396875,0.396875 0 0 0 -0.396875,-0.39687 0.396875,0.396875 0 0 0 -0.396875,0.39687 0.396875,0.396875 0 0 0 0.396875,0.39688 m 1.852083,0 a 0.396875,0.396875 0 0 0 0.396875,-0.39688 0.396875,0.396875 0 0 0 -0.396875,-0.39687 0.396875,0.396875 0 0 0 -0.396875,0.39687 0.396875,0.396875 0 0 0 0.396875,0.39688 m -0.926042,2.38125 a 2.1166667,2.1166667 0 0 1 -2.116666,-2.11667 2.1166667,2.1166667 0 0 1 2.116666,-2.11666 2.1166667,2.1166667 0 0 1 2.116667,2.11666 2.1166667,2.1166667 0 0 1 -2.116667,2.11667 m 0,-4.7625 c -1.463145,0 -2.645833,1.19062 -2.645833,2.64583 a 2.6458333,2.6458333 0 0 0 2.645833,2.64584 2.6458333,2.6458333 0 0 0 2.645834,-2.64584 2.6458333,2.6458333 0 0 0 -2.645834,-2.64583 z"
       inkscape:connector-curvature="0"
       style="stroke-width:0.26458332" />
    <path
       id="path4511"
       d="m 9.5698847,127.99739 a 2.1166667,2.1166667 0 0 0 -2.116667,-2.11666 2.1166667,2.1166667 0 0 0 -2.116666,2.11666 2.1166667,2.1166667 0 0 0 2.116666,2.11667 2.1166667,2.1166667 0 0 0 2.116667,-2.11667 m 0.5291673,0 a 2.6458333,2.6458333 0 0 1 -2.6458343,2.64584 2.6458333,2.6458333 0 0 1 -2.645833,-2.64584 2.6458333,2.6458333 0 0 1 2.645833,-2.64583 2.6458333,2.6458333 0 0 1 2.6458343,2.64583 m -3.1750003,-0.66146 c 0,0.21167 -0.185209,0.39688 -0.396875,0.39688 -0.211667,0 -0.396875,-0.18521 -0.396875,-0.39688 0,-0.21166 0.185208,-0.39687 0.396875,-0.39687 0.211666,0 0.396875,0.18521 0.396875,0.39687 m 1.852083,0 c 0,0.21167 -0.185208,0.39688 -0.396875,0.39688 -0.211667,0 -0.396875,-0.18521 -0.396875,-0.39688 0,-0.21166 0.185208,-0.39687 0.396875,-0.39687 0.211667,0 0.396875,0.18521 0.396875,0.39687 m -1.322917,2.04523 c -0.46302,0 -0.870479,-0.19314 -1.108604,-0.47889 l 0.375709,-0.37571 c 0.119062,0.1905 0.402166,0.32544 0.732895,0.32544 0.33073,0 0.613834,-0.13494 0.732896,-0.32544 l 0.375709,0.37571 c -0.238125,0.28575 -0.645584,0.47889 -1.108605,0.47889 z"
       inkscape:connector-curvature="0"
       style="fill:#ff0000;fill-opacity:1;stroke-width:0.26458332" />
  </g>
  <g
     inkscape:groupmode="layer"
     id="layer2"
     inkscape:label="Layer 2"
     style="display:inline">
    <ellipse
       style="display:inline;opacity:1;fill:#f6ff51;fill-opacity:1;stroke:none;stroke-width:0.11598136;stroke-miterlimit:4;stroke-dasharray:none;stroke-opacity:1;paint-order:fill markers stroke"
       id="path4602-4"
       cx="29.647507"
       cy="127.7021"
       rx="2.3387277"
       ry="2.3800685" />
    <path
       style="opacity:1;stroke-width:0.26458332"
       d="m 7.4648828,125.36311 a 2.6458333,2.6458333 0 0 0 -2.645833,2.64584 2.6458333,2.6458333 0 0 0 2.645833,2.64583 2.6458333,2.6458333 0 0 0 2.6458342,-2.64583 2.6458333,2.6458333 0 0 0 -2.6458342,-2.64584 z m 0,0.52917 a 2.1166667,2.1166667 0 0 1 2.116667,2.11667 2.1166667,2.1166667 0 0 1 -2.116667,2.11666 2.1166667,2.1166667 0 0 1 -2.116667,-2.11666 2.1166667,2.1166667 0 0 1 2.116667,-2.11667 z"
       id="path4543"
       inkscape:connector-curvature="0" />
    <path
       style="opacity:1;stroke-width:0.26458332"
       d="m 6.9240517,127.33593 c 0,0.21167 -0.185209,0.39688 -0.396875,0.39688 -0.211667,0 -0.396875,-0.18521 -0.396875,-0.39688 0,-0.21166 0.185208,-0.39687 0.396875,-0.39687 0.211666,0 0.396875,0.18521 0.396875,0.39687"
       id="path4541"
       inkscape:connector-curvature="0" />
    <path
       style="opacity:1;stroke-width:0.26458332"
       d="m 8.7761347,127.33593 c 0,0.21167 -0.185208,0.39688 -0.396875,0.39688 -0.211667,0 -0.396875,-0.18521 -0.396875,-0.39688 0,-0.21166 0.185208,-0.39687 0.396875,-0.39687 0.211667,0 0.396875,0.18521 0.396875,0.39687"
       id="path4539"
       inkscape:connector-curvature="0" />
    <path
       style="opacity:1;stroke-width:0.26458332"
       d="m 13.524461,123.8168 c 0.46302,0 0.870479,0.19314 1.108604,0.47889 l -0.375709,0.37571 c -0.119062,-0.1905 -0.402166,-0.32544 -0.732895,-0.32544 -0.33073,0 -0.613834,0.13494 -0.732896,0.32544 l -0.375709,-0.37571 c 0.238125,-0.28575 0.645584,-0.47889 1.108605,-0.47889 z"
       id="path4511-8"
       inkscape:connector-curvature="0" />
    <circle
       style="display:inline;opacity:1;fill:#f6ff51;fill-opacity:1;stroke:none;stroke-width:0.59109062;stroke-miterlimit:4;stroke-dasharray:none;stroke-opacity:1;paint-order:fill markers stroke"
       id="path4735-9"
       cx="55.377056"
       cy="99.698799"
       r="6.3499999"
       inkscape:export-filename="D:\Documents\School\Y3S1\CMPUT 301\A1\burghard-FeelsBook\icons\happy_icon.png"
       inkscape:export-xdpi="96"
       inkscape:export-ydpi="96" />
    <g
       id="g4782"
       clip-path="url(#clipPath4784)"
       transform="matrix(1.5,0,0,1.5,10.888078,-91.836647)"
       inkscape:export-filename="D:\Documents\School\Y3S1\CMPUT 301\A1\burghard-FeelsBook\icons\happy_icon.png"
       inkscape:export-xdpi="96"
       inkscape:export-ydpi="96">
      <g
         inkscape:label="Clip"
         id="g4780">
        <path
           inkscape:connector-curvature="0"
           id="path4543-2"
           d="m 29.659319,125.04446 a 2.6458333,2.6458333 0 0 0 -2.645833,2.64584 2.6458333,2.6458333 0 0 0 2.645833,2.64583 2.6458333,2.6458333 0 0 0 2.645834,-2.64583 2.6458333,2.6458333 0 0 0 -2.645834,-2.64584 z m 0,0.52917 a 2.1166667,2.1166667 0 0 1 2.116667,2.11667 2.1166667,2.1166667 0 0 1 -2.116667,2.11666 2.1166667,2.1166667 0 0 1 -2.116667,-2.11666 2.1166667,2.1166667 0 0 1 2.116667,-2.11667 z"
           style="display:inline;opacity:1;stroke-width:0.26458332" />
        <path
           inkscape:connector-curvature="0"
           id="path4541-0"
           d="m 29.118488,127.01728 c 0,0.21167 -0.185209,0.39688 -0.396875,0.39688 -0.211667,0 -0.396875,-0.18521 -0.396875,-0.39688 0,-0.21166 0.185208,-0.39687 0.396875,-0.39687 0.211666,0 0.396875,0.18521 0.396875,0.39687"
           style="display:inline;opacity:1;stroke-width:0.26458332" />
        <path
           inkscape:connector-curvature="0"
           id="path4539-8"
           d="m 30.970571,127.01728 c 0,0.21167 -0.185208,0.39688 -0.396875,0.39688 -0.211667,0 -0.396875,-0.18521 -0.396875,-0.39688 0,-0.21166 0.185208,-0.39687 0.396875,-0.39687 0.211667,0 0.396875,0.18521 0.396875,0.39687"
           style="display:inline;opacity:1;stroke-width:0.26458332" />
        <path
           inkscape:connector-curvature="0"
           id="path4511-8-4"
           d="m 29.647654,129.06251 c -0.46302,0 -0.870479,-0.19314 -1.108604,-0.47889 l 0.375709,-0.37571 c 0.119062,0.1905 0.402166,0.32544 0.732895,0.32544 0.33073,0 0.613834,-0.13494 0.732896,-0.32544 l 0.375709,0.37571 c -0.238125,0.28575 -0.645584,0.47889 -1.108605,0.47889 z"
           style="display:inline;opacity:1;stroke-width:0.26458332" />
      </g>
    </g>
    <ellipse
       style="opacity:1;fill:#51e8ff;fill-opacity:1;stroke:none;stroke-width:0.11598136;stroke-miterlimit:4;stroke-dasharray:none;stroke-opacity:1;paint-order:fill markers stroke"
       id="path4602"
       cx="26.930801"
       cy="133.20047"
       rx="2.3387277"
       ry="2.3800685" />
    <circle
       style="display:inline;opacity:1;fill:#51adff;fill-opacity:1;stroke:none;stroke-width:0.59109062;stroke-miterlimit:4;stroke-dasharray:none;stroke-opacity:1;paint-order:fill markers stroke"
       id="path4735-0"
       cx="82.118866"
       cy="121.99465"
       r="6.3499999"
       inkscape:export-filename="D:\Documents\School\Y3S1\CMPUT 301\A1\burghard-FeelsBook\icons\sad_icon.png"
       inkscape:export-xdpi="96"
       inkscape:export-ydpi="96" />
    <g
       id="g4755"
       clip-path="url(#clipPath4757)"
       transform="translate(7.9528552,6.3523634)"
       inkscape:export-filename="D:\Documents\School\Y3S1\CMPUT 301\A1\burghard-FeelsBook\icons\sad_icon.png"
       inkscape:export-xdpi="96"
       inkscape:export-ydpi="96">
      <g
         inkscape:label="Clip"
         id="g4753">
        <path
           inkscape:connector-curvature="0"
           id="path4543-5"
           d="m 74.166014,111.67353 a 3.96875,3.9687499 0 0 0 -3.96875,3.96876 3.96875,3.9687499 0 0 0 3.96875,3.96875 3.96875,3.9687499 0 0 0 3.968751,-3.96875 3.96875,3.9687499 0 0 0 -3.968751,-3.96876 z m 0,0.79376 a 3.1750001,3.175 0 0 1 3.175002,3.175 3.1750001,3.175 0 0 1 -3.175002,3.17499 3.1750001,3.175 0 0 1 -3.175001,-3.17499 3.1750001,3.175 0 0 1 3.175001,-3.175 z"
           style="display:inline;opacity:1;stroke-width:0.39687496" />
        <path
           inkscape:connector-curvature="0"
           id="path4541-1"
           d="m 73.354767,114.63276 c 0,0.31751 -0.277813,0.59532 -0.595312,0.59532 -0.317501,0 -0.595313,-0.27781 -0.595313,-0.59532 0,-0.31749 0.277812,-0.5953 0.595313,-0.5953 0.317499,0 0.595312,0.27781 0.595312,0.5953"
           style="display:inline;opacity:1;stroke-width:0.39687496" />
        <path
           inkscape:connector-curvature="0"
           id="path4539-2"
           d="m 76.132893,114.63276 c 0,0.31751 -0.277812,0.59532 -0.595312,0.59532 -0.317502,0 -0.595313,-0.27781 -0.595313,-0.59532 0,-0.31749 0.277811,-0.5953 0.595313,-0.5953 0.3175,0 0.595312,0.27781 0.595312,0.5953"
           style="display:inline;opacity:1;stroke-width:0.39687496" />
        <path
           inkscape:connector-curvature="0"
           id="path4511-8-5"
           d="m 74.148518,116.26394 c 0.694531,0 1.305718,0.28971 1.662906,0.71833 l -0.563562,0.56357 c -0.178593,-0.28575 -0.603251,-0.48816 -1.099344,-0.48816 -0.496095,0 -0.920751,0.20241 -1.099344,0.48816 l -0.563564,-0.56357 c 0.357188,-0.42862 0.968376,-0.71833 1.662908,-0.71833 z"
           style="display:inline;opacity:1;stroke-width:0.39687496" />
      </g>
    </g>
    <ellipse
       style="display:inline;opacity:1;fill:#ff5555;fill-opacity:1;stroke:none;stroke-width:0.11598136;stroke-miterlimit:4;stroke-dasharray:none;stroke-opacity:1;paint-order:fill markers stroke"
       id="path4602-7"
       cx="32.836681"
       cy="132.60399"
       rx="2.3387277"
       ry="2.3800685" />
    <path
       style="display:inline;opacity:1;stroke-width:0.35020667"
       d="m 2.1297752,127.66437 c 0,0.20064 -0.3423059,0.37621 -0.7335102,0.37621 -0.3912059,0 -0.73350991,-0.17557 -0.73350991,-0.37621 0,-0.20064 0.34230401,-0.3762 0.73350991,-0.3762 0.3912043,0 0.7335102,0.17556 0.7335102,0.3762"
       id="path4541-8"
       inkscape:connector-curvature="0" />
    <path
       style="display:inline;opacity:1;stroke-width:0.26458332"
       d="m 13.182066,126.43851 c 0,0.21167 -0.185208,0.39688 -0.396875,0.39688 -0.211667,0 -0.396875,-0.18521 -0.396875,-0.39688 0,-0.21166 0.185208,-0.39687 0.396875,-0.39687 0.211667,0 0.396875,0.18521 0.396875,0.39687"
       id="path4539-9"
       inkscape:connector-curvature="0" />
    <path
       style="display:inline;opacity:1;stroke-width:0.26458332"
       d="m 13.295312,128.32812 c 0,0.21167 -0.185208,0.39688 -0.396875,0.39688 -0.211667,0 -0.396875,-0.18521 -0.396875,-0.39688 0,-0.21166 0.185208,-0.39687 0.396875,-0.39687 0.211667,0 0.396875,0.18521 0.396875,0.39687"
       id="path4539-9-3"
       inkscape:connector-curvature="0" />
    <path
       style="stroke-width:0.26458332"
       d="m 64.931585,127.09971 a 2.1166667,2.1166667 0 0 0 -2.116667,-2.11667 2.1166667,2.1166667 0 0 0 -2.116666,2.11667 2.1166667,2.1166667 0 0 0 2.116666,2.11667 2.1166667,2.1166667 0 0 0 2.116667,-2.11667"
       id="path4707"
       inkscape:connector-curvature="0" />
    <path
       style="stroke-width:0.26458332"
       d="m 17.564081,128.67246 c -0.46302,0 -0.870479,-0.19315 -1.108604,-0.4789 l 0.375709,-0.3757 c 0.119062,0.1905 0.402166,0.32543 0.732895,0.32543 0.33073,0 0.613834,-0.13493 0.732896,-0.32543 l 0.375709,0.3757 c -0.238125,0.28575 -0.645584,0.4789 -1.108605,0.4789 z"
       id="path4690" />
    <circle
       style="opacity:1;fill:#ff4445;fill-opacity:1;stroke:none;stroke-width:0.59109062;stroke-miterlimit:4;stroke-dasharray:none;stroke-opacity:1;paint-order:fill markers stroke"
       id="path4735"
       cx="51.971725"
       cy="115.75451"
       r="6.3499999"
       inkscape:export-filename="D:\Documents\School\Y3S1\CMPUT 301\A1\burghard-FeelsBook\icons\angry_icon.png"
       inkscape:export-xdpi="96"
       inkscape:export-ydpi="96" />
    <path
       inkscape:connector-curvature="0"
       id="path4543-9"
       d="m 51.971726,111.78576 a 3.96875,3.96875 0 0 0 -3.968748,3.96876 3.96875,3.96875 0 0 0 3.968748,3.96874 3.96875,3.96875 0 0 0 3.968751,-3.96874 3.96875,3.96875 0 0 0 -3.968751,-3.96876 z m 0,0.79374 a 3.1750001,3.1750001 0 0 1 3.175,3.17501 3.1750001,3.1750001 0 0 1 -3.175,3.17499 3.1750001,3.1750001 0 0 1 -3.175001,-3.17499 3.1750001,3.1750001 0 0 1 3.175001,-3.17501 z"
       style="display:inline;opacity:1;stroke-width:0.39687496"
       inkscape:export-filename="D:\Documents\School\Y3S1\CMPUT 301\A1\burghard-FeelsBook\icons\angry_icon.png"
       inkscape:export-xdpi="96"
       inkscape:export-ydpi="96" />
    <path
       inkscape:connector-curvature="0"
       id="path4511-8-58"
       d="m 51.95423,116.37615 c 0.69453,0 1.305718,0.28971 1.662906,0.71834 l -0.563564,0.56356 c -0.178593,-0.28575 -0.603249,-0.48816 -1.099342,-0.48816 -0.496095,0 -0.920751,0.20241 -1.099344,0.48816 l -0.563564,-0.56356 c 0.357188,-0.42862 0.968376,-0.71834 1.662908,-0.71834 z"
       style="display:inline;opacity:1;stroke-width:0.39687496"
       inkscape:export-filename="D:\Documents\School\Y3S1\CMPUT 301\A1\burghard-FeelsBook\icons\angry_icon.png"
       inkscape:export-xdpi="96"
       inkscape:export-ydpi="96" />
    <path
       inkscape:connector-curvature="0"
       id="path4705"
       d="m 51.160479,114.74498 c 0,0.3175 -0.277812,0.59532 -0.595312,0.59532 -0.317499,0 -0.595313,-0.27782 -0.595313,-0.59532 v -0.59531 l 1.190625,0.59531"
       style="stroke-width:0.39687496"
       inkscape:export-filename="D:\Documents\School\Y3S1\CMPUT 301\A1\burghard-FeelsBook\icons\angry_icon.png"
       inkscape:export-xdpi="96"
       inkscape:export-ydpi="96" />
    <path
       inkscape:connector-curvature="0"
       id="path4703"
       d="m 53.938604,114.74498 c 0,0.3175 -0.277812,0.59532 -0.595313,0.59532 -0.317499,0 -0.595312,-0.27782 -0.595312,-0.59532 l 1.190625,-0.59531 v 0.59531"
       style="fill:#000000;fill-opacity:1;stroke-width:0.39687496"
       inkscape:export-filename="D:\Documents\School\Y3S1\CMPUT 301\A1\burghard-FeelsBook\icons\angry_icon.png"
       inkscape:export-xdpi="96"
       inkscape:export-ydpi="96" />
    <path
       style="display:inline;opacity:1;stroke-width:0.12504114"
       d="m 6.3826651,126.82362 c -0.1547302,0.15473 -0.3554522,0.22634 -0.5305015,0.21044 l -8e-7,-0.25111 c 0.1034271,0.0239 0.2431473,-0.0256 0.353669,-0.13616 0.1105221,-0.11052 0.1600153,-0.25024 0.1361634,-0.35367 h 0.2511069 c 0.015912,0.17506 -0.055706,0.37577 -0.210437,0.5305 z"
       id="path4511-8-0"
       inkscape:connector-curvature="0" />
    <path
       style="display:inline;opacity:1;stroke-width:0.12504114"
       d="m 8.5303933,126.81418 c -0.1547302,-0.15473 -0.2263345,-0.35545 -0.2104367,-0.5305 h 0.251107 c -0.023852,0.10343 0.025641,0.24315 0.136163,0.35367 0.110522,0.11052 0.2502421,0.16002 0.3536694,0.13616 l -9e-7,0.25111 c -0.1750634,0.0159 -0.3757712,-0.0557 -0.5305018,-0.21044 z"
       id="path4511-8-0-0"
       inkscape:connector-curvature="0" />
    <circle
       style="display:inline;opacity:1;fill:#ff80d6;fill-opacity:1;stroke:none;stroke-width:0.59109062;stroke-miterlimit:4;stroke-dasharray:none;stroke-opacity:1;paint-order:fill markers stroke"
       id="path4735-2"
       cx="37.575558"
       cy="106.40549"
       r="6.3499999"
       inkscape:export-filename="D:\Documents\School\Y3S1\CMPUT 301\A1\burghard-FeelsBook\icons\surprised_icon.png"
       inkscape:export-xdpi="96"
       inkscape:export-ydpi="96" />
    <g
       id="g4871"
       clip-path="url(#clipPath4873)"
       transform="matrix(1.5,0,0,1.5,-8.7737725,-57.490434)"
       inkscape:export-filename="D:\Documents\School\Y3S1\CMPUT 301\A1\burghard-FeelsBook\icons\surprised_icon.png"
       inkscape:export-xdpi="96"
       inkscape:export-ydpi="96">
      <g
         inkscape:label="Clip"
         id="g4869">
        <path
           inkscape:connector-curvature="0"
           id="path4543-0"
           d="m 30.899553,106.61812 a 2.6458333,2.6458333 0 0 0 -2.645833,2.64584 2.6458333,2.6458333 0 0 0 2.645833,2.64583 2.6458333,2.6458333 0 0 0 2.645834,-2.64583 2.6458333,2.6458333 0 0 0 -2.645834,-2.64584 z m 0,0.52917 a 2.1166667,2.1166667 0 0 1 2.116666,2.11667 2.1166667,2.1166667 0 0 1 -2.116666,2.11666 2.1166667,2.1166667 0 0 1 -2.116667,-2.11666 2.1166667,2.1166667 0 0 1 2.116667,-2.11667 z"
           style="display:inline;opacity:1;stroke-width:0.26458332" />
        <path
           inkscape:connector-curvature="0"
           id="path4541-2"
           d="m 30.358722,108.59094 c 0,0.21167 -0.185209,0.39688 -0.396875,0.39688 -0.211667,0 -0.396875,-0.18521 -0.396875,-0.39688 0,-0.21166 0.185208,-0.39687 0.396875,-0.39687 0.211666,0 0.396875,0.18521 0.396875,0.39687"
           style="display:inline;opacity:1;stroke-width:0.26458332" />
        <path
           inkscape:connector-curvature="0"
           id="path4539-5"
           d="m 32.210804,108.59094 c 0,0.21167 -0.185208,0.39688 -0.396875,0.39688 -0.211667,0 -0.396875,-0.18521 -0.396875,-0.39688 0,-0.21166 0.185208,-0.39687 0.396875,-0.39687 0.211667,0 0.396875,0.18521 0.396875,0.39687"
           style="display:inline;opacity:1;stroke-width:0.26458332" />
        <path
           inkscape:connector-curvature="0"
           id="path4541-8-9"
           d="m 31.445549,110.05585 c 0,0.40066 -0.243087,0.75124 -0.520898,0.75124 -0.277813,0 -0.520899,-0.35058 -0.520899,-0.75124 0,-0.40064 0.243086,-0.75122 0.520899,-0.75122 0.277811,0 0.520898,0.35058 0.520898,0.75122"
           style="display:inline;opacity:1;stroke-width:0.41703361" />
        <path
           inkscape:connector-curvature="0"
           id="path4511-8-0-5"
           d="m 29.996101,107.53762 c 0.218821,0 0.411385,0.0913 0.523922,0.22632 l -0.177559,0.17756 c -0.05627,-0.09 -0.190062,-0.1538 -0.346363,-0.1538 -0.156302,0 -0.290096,0.0638 -0.346364,0.1538 l -0.177559,-0.17756 c 0.112537,-0.13504 0.305101,-0.22632 0.523923,-0.22632 z"
           style="display:inline;opacity:1;stroke-width:0.12504114" />
        <path
           inkscape:connector-curvature="0"
           id="path4511-8-0-0-1"
           d="m 31.77377,107.50313 c 0.218821,0 0.411385,0.0913 0.523922,0.22632 l -0.177559,0.17756 c -0.05627,-0.09 -0.190062,-0.1538 -0.346363,-0.1538 -0.156302,0 -0.290096,0.0638 -0.346364,0.1538 l -0.177559,-0.17756 c 0.112537,-0.13504 0.3051,-0.22632 0.523923,-0.22632 z"
           style="display:inline;opacity:1;stroke-width:0.12504114" />
      </g>
    </g>
    <path
       style="opacity:1;vector-effect:none;fill:#ff0202;fill-opacity:0.55813958;stroke:#000000;stroke-width:0.5291667;stroke-linecap:round;stroke-linejoin:miter;stroke-miterlimit:4;stroke-dasharray:none;stroke-dashoffset:0;stroke-opacity:1"
       d="m 6.7420776,128.99409 c 0.7117899,-0.20584 0.7892373,-0.21218 1.4987963,-0.003"
       id="path4895"
       inkscape:connector-curvature="0"
       sodipodi:nodetypes="cc" />
    <circle
       style="display:inline;opacity:1;fill:#383838;fill-opacity:1;stroke:none;stroke-width:0.59109062;stroke-miterlimit:4;stroke-dasharray:none;stroke-opacity:1;paint-order:fill markers stroke"
       id="path4735-0-1"
       cx="69.453125"
       cy="116.09115"
       r="6.3499999"
       inkscape:export-filename="D:\Documents\School\Y3S1\CMPUT 301\A1\burghard-FeelsBook\icons\sad_icon.png"
       inkscape:export-xdpi="96"
       inkscape:export-ydpi="96" />
    <path
       style="display:inline;opacity:1;fill:#ffffff;fill-opacity:1;stroke-width:0.39687499"
       d="m 69.453124,112.12239 a 3.96875,3.9687499 0 0 0 -3.96875,3.96876 3.96875,3.9687499 0 0 0 3.96875,3.96875 3.96875,3.9687499 0 0 0 3.968752,-3.96875 3.96875,3.9687499 0 0 0 -3.968752,-3.96876 z m 0,0.79376 a 3.1750001,3.1750001 0 0 1 3.175,3.175 3.1750001,3.1750001 0 0 1 -3.175,3.17499 3.1750001,3.1750001 0 0 1 -3.175001,-3.17499 3.1750001,3.1750001 0 0 1 3.175001,-3.175 z"
       id="path4543-21"
       inkscape:connector-curvature="0"
       inkscape:export-filename="D:\Documents\School\Y3S1\CMPUT 301\A1\burghard-FeelsBook\icons\sad_icon.png"
       inkscape:export-xdpi="96"
       inkscape:export-ydpi="96" />
    <path
       style="display:inline;opacity:1;vector-effect:none;fill:#ffffff;fill-opacity:1;stroke:#fcfcfc;stroke-width:1.030653;stroke-linecap:round;stroke-linejoin:miter;stroke-miterlimit:4;stroke-dasharray:none;stroke-dashoffset:0;stroke-opacity:1"
       d="m 68.436568,117.57849 c 0.826251,-0.27043 1.440382,-0.25206 2.112892,-0.007"
       id="path4895-5"
       inkscape:connector-curvature="0"
       sodipodi:nodetypes="cc"
       inkscape:export-filename="D:\Documents\School\Y3S1\CMPUT 301\A1\burghard-FeelsBook\icons\sad_icon.png"
       inkscape:export-xdpi="96"
       inkscape:export-ydpi="96" />
    <path
       inkscape:connector-curvature="0"
       id="path4705-5"
       d="m 71.420002,115.08162 c 0,0.3175 -0.277812,0.59532 -0.595312,0.59532 -0.317499,0 -0.595313,-0.27782 -0.595313,-0.59532 v -0.59531 l 1.190625,0.59531"
       style="display:inline;fill:#ffffff;fill-opacity:1;stroke-width:0.39687496"
       inkscape:export-filename="D:\Documents\School\Y3S1\CMPUT 301\A1\burghard-FeelsBook\icons\sad_icon.png"
       inkscape:export-xdpi="96"
       inkscape:export-ydpi="96" />
    <path
       inkscape:connector-curvature="0"
       id="path4703-6"
       d="m 68.641877,115.08162 c 0,0.3175 -0.277812,0.59532 -0.595313,0.59532 -0.317499,0 -0.595312,-0.27782 -0.595312,-0.59532 l 1.190625,-0.59531 v 0.59531"
       style="display:inline;fill:#ffffff;fill-opacity:1;stroke-width:0.39687496"
       inkscape:export-filename="D:\Documents\School\Y3S1\CMPUT 301\A1\burghard-FeelsBook\icons\sad_icon.png"
       inkscape:export-xdpi="96"
       inkscape:export-ydpi="96" />
  </g>
</svg>
