<?xml version="1.0" encoding="UTF-8" standalone="no"?>
<!-- Created with Inkscape (http://www.inkscape.org/) -->

<svg
   xmlns:dc="http://purl.org/dc/elements/1.1/"
   xmlns:cc="http://creativecommons.org/ns#"
   xmlns:rdf="http://www.w3.org/1999/02/22-rdf-syntax-ns#"
   xmlns:svg="http://www.w3.org/2000/svg"
   xmlns="http://www.w3.org/2000/svg"
   xmlns:xlink="http://www.w3.org/1999/xlink"
   xmlns:sodipodi="http://sodipodi.sourceforge.net/DTD/sodipodi-0.dtd"
   xmlns:inkscape="http://www.inkscape.org/namespaces/inkscape"
   width="48"
   height="48"
   viewBox="0 0 12.7 12.7"
   version="1.1"
   id="svg8"
   inkscape:version="0.92.1 r15371"
   sodipodi:docname="anger_icon.svg">
  <defs
     id="defs2">
    <clipPath
       clipPathUnits="userSpaceOnUse"
       id="clipPath4745">
      <g
         transform="translate(-2.0863951e-7,-1.327926e-6)"
         inkscape:label="Clip"
         id="use4747">
        <path
           inkscape:connector-curvature="0"
           id="path5006"
           d="m 62.283387,109.26397 a 5.2916666,5.2916666 0 0 0 -5.291664,5.29168 5.2916666,5.2916666 0 0 0 5.291664,5.29166 5.2916666,5.2916666 0 0 0 5.291668,-5.29166 5.2916666,5.2916666 0 0 0 -5.291668,-5.29168 z m 0,1.05833 a 4.2333334,4.2333334 0 0 1 4.233334,4.23334 4.2333334,4.2333334 0 0 1 -4.233334,4.23332 4.2333334,4.2333334 0 0 1 -4.233334,-4.23332 4.2333334,4.2333334 0 0 1 4.233334,-4.23334 z"
           style="display:inline;opacity:1;stroke-width:0.52916664" />
        <path
           inkscape:connector-curvature="0"
           id="path5008"
           d="m 62.260059,115.3845 c 0.92604,0 1.740958,0.38628 2.217208,0.95778 l -0.751418,0.75142 c -0.238124,-0.381 -0.804332,-0.65088 -1.46579,-0.65088 -0.66146,0 -1.227668,0.26988 -1.465792,0.65088 l -0.751418,-0.75142 c 0.47625,-0.57149 1.291168,-0.95778 2.21721,-0.95778 z"
           style="display:inline;opacity:1;stroke-width:0.52916664" />
        <path
           inkscape:connector-curvature="0"
           id="path5010"
           d="m 61.201725,113.2096 c 0,0.42334 -0.370416,0.79376 -0.79375,0.79376 -0.423332,0 -0.79375,-0.37042 -0.79375,-0.79376 v -0.79374 l 1.5875,0.79374"
           style="stroke-width:0.52916664" />
        <path
           inkscape:connector-curvature="0"
           id="path5012"
           d="m 64.905891,113.2096 c 0,0.42334 -0.370416,0.79376 -0.79375,0.79376 -0.423332,0 -0.79375,-0.37042 -0.79375,-0.79376 l 1.5875,-0.79374 v 0.79374"
           style="fill:#000000;fill-opacity:1;stroke-width:0.52916664" />
      </g>
    </clipPath>
    <clipPath
       clipPathUnits="userSpaceOnUse"
       id="clipPath4757">
      <use
         x="0"
         y="0"
         xlink:href="#g4753"
         id="use4759"
         width="100%"
         height="100%" />
    </clipPath>
    <clipPath
       clipPathUnits="userSpaceOnUse"
       id="clipPath4784">
      <use
         x="0"
         y="0"
         xlink:href="#g4780"
         id="use4786"
         width="100%"
         height="100%" />
    </clipPath>
    <clipPath
       clipPathUnits="userSpaceOnUse"
       id="clipPath4873">
      <g
         id="use4875"
         inkscape:label="Clip">
        <path
           style="display:inline;opacity:1;stroke-width:0.26458332"
           d="m 30.899553,106.61812 a 2.6458333,2.6458333 0 0 0 -2.645833,2.64584 2.6458333,2.6458333 0 0 0 2.645833,2.64583 2.6458333,2.6458333 0 0 0 2.645834,-2.64583 2.6458333,2.6458333 0 0 0 -2.645834,-2.64584 z m 0,0.52917 a 2.1166667,2.1166667 0 0 1 2.116666,2.11667 2.1166667,2.1166667 0 0 1 -2.116666,2.11666 2.1166667,2.1166667 0 0 1 -2.116667,-2.11666 2.1166667,2.1166667 0 0 1 2.116667,-2.11667 z"
           id="path4678"
           inkscape:connector-curvature="0" />
        <path
           style="display:inline;opacity:1;stroke-width:0.26458332"
           d="m 30.358722,108.59094 c 0,0.21167 -0.185209,0.39688 -0.396875,0.39688 -0.211667,0 -0.396875,-0.18521 -0.396875,-0.39688 0,-0.21166 0.185208,-0.39687 0.396875,-0.39687 0.211666,0 0.396875,0.18521 0.396875,0.39687"
           id="path4680"
           inkscape:connector-curvature="0" />
        <path
           style="display:inline;opacity:1;stroke-width:0.26458332"
           d="m 32.210804,108.59094 c 0,0.21167 -0.185208,0.39688 -0.396875,0.39688 -0.211667,0 -0.396875,-0.18521 -0.396875,-0.39688 0,-0.21166 0.185208,-0.39687 0.396875,-0.39687 0.211667,0 0.396875,0.18521 0.396875,0.39687"
           id="path4682"
           inkscape:connector-curvature="0" />
        <path
           style="display:inline;opacity:1;stroke-width:0.41703361"
           d="m 31.445549,110.05585 c 0,0.40066 -0.243087,0.75124 -0.520898,0.75124 -0.277813,0 -0.520899,-0.35058 -0.520899,-0.75124 0,-0.40064 0.243086,-0.75122 0.520899,-0.75122 0.277811,0 0.520898,0.35058 0.520898,0.75122"
           id="path4684"
           inkscape:connector-curvature="0" />
        <path
           style="display:inline;opacity:1;stroke-width:0.12504114"
           d="m 29.996101,107.53762 c 0.218821,0 0.411385,0.0913 0.523922,0.22632 l -0.177559,0.17756 c -0.05627,-0.09 -0.190062,-0.1538 -0.346363,-0.1538 -0.156302,0 -0.290096,0.0638 -0.346364,0.1538 l -0.177559,-0.17756 c 0.112537,-0.13504 0.305101,-0.22632 0.523923,-0.22632 z"
           id="path4686"
           inkscape:connector-curvature="0" />
        <path
           style="display:inline;opacity:1;stroke-width:0.12504114"
           d="m 31.77377,107.50313 c 0.218821,0 0.411385,0.0913 0.523922,0.22632 l -0.177559,0.17756 c -0.05627,-0.09 -0.190062,-0.1538 -0.346363,-0.1538 -0.156302,0 -0.290096,0.0638 -0.346364,0.1538 l -0.177559,-0.17756 c 0.112537,-0.13504 0.3051,-0.22632 0.523923,-0.22632 z"
           id="path4688"
           inkscape:connector-curvature="0" />
      </g>
    </clipPath>
  </defs>
  <sodipodi:namedview
     id="base"
     pagecolor="#ffffff"
     bordercolor="#666666"
     borderopacity="1.0"
     inkscape:pageopacity="0.0"
     inkscape:pageshadow="2"
     inkscape:zoom="3.959798"
     inkscape:cx="7.2774061"
     inkscape:cy="-9.8007847"
     inkscape:document-units="mm"
     inkscape:current-layer="layer1"
     showgrid="false"
     inkscape:window-width="1427"
     inkscape:window-height="907"
     inkscape:window-x="2077"
     inkscape:window-y="250"
     inkscape:window-maximized="0"
     inkscape:pagecheckerboard="false"
     fit-margin-top="0"
     fit-margin-left="0"
     fit-margin-right="0"
     fit-margin-bottom="0"
     units="px" />
  <metadata
     id="metadata5">
    <rdf:RDF>
      <cc:Work
         rdf:about="">
        <dc:format>image/svg+xml</dc:format>
        <dc:type
           rdf:resource="http://purl.org/dc/dcmitype/StillImage" />
        <dc:title></dc:title>
      </cc:Work>
    </rdf:RDF>
  </metadata>
  <g
     inkscape:label="Layer 1"
     inkscape:groupmode="layer"
     id="layer1"
     transform="translate(-109.31718,-143.77317)">
    <g
       inkscape:label="Layer 1"
       id="layer1-1"
       style="opacity:0.53500001"
       transform="translate(63.69546,34.368664)">
      <path
         id="path4485"
         d="m 16.630952,129.68884 c 0.61648,0 1.137709,-0.38629 1.352021,-0.92604 h -2.704041 c 0.211666,0.53975 0.735541,0.92604 1.35202,0.92604 m -0.926041,-1.71979 a 0.396875,0.396875 0 0 0 0.396875,-0.39688 0.396875,0.396875 0 0 0 -0.396875,-0.39687 0.396875,0.396875 0 0 0 -0.396875,0.39687 0.396875,0.396875 0 0 0 0.396875,0.39688 m 1.852083,0 a 0.396875,0.396875 0 0 0 0.396875,-0.39688 0.396875,0.396875 0 0 0 -0.396875,-0.39687 0.396875,0.396875 0 0 0 -0.396875,0.39687 0.396875,0.396875 0 0 0 0.396875,0.39688 m -0.926042,2.38125 a 2.1166667,2.1166667 0 0 1 -2.116666,-2.11667 2.1166667,2.1166667 0 0 1 2.116666,-2.11666 2.1166667,2.1166667 0 0 1 2.116667,2.11666 2.1166667,2.1166667 0 0 1 -2.116667,2.11667 m 0,-4.7625 c -1.463145,0 -2.645833,1.19062 -2.645833,2.64583 a 2.6458333,2.6458333 0 0 0 2.645833,2.64584 2.6458333,2.6458333 0 0 0 2.645834,-2.64584 2.6458333,2.6458333 0 0 0 -2.645834,-2.64583 z"
         inkscape:connector-curvature="0"
         style="stroke-width:0.26458332" />
      <path
         id="path4485-6"
         d="m 22.773065,129.46441 c 0.61648,0 1.137709,-0.38629 1.352021,-0.92604 h -2.704041 c 0.211666,0.53975 0.735541,0.92604 1.35202,0.92604 m -0.926041,-1.71979 a 0.396875,0.396875 0 0 0 0.396875,-0.39688 0.396875,0.396875 0 0 0 -0.396875,-0.39687 0.396875,0.396875 0 0 0 -0.396875,0.39687 0.396875,0.396875 0 0 0 0.396875,0.39688 m 1.852083,0 a 0.396875,0.396875 0 0 0 0.396875,-0.39688 0.396875,0.396875 0 0 0 -0.396875,-0.39687 0.396875,0.396875 0 0 0 -0.396875,0.39687 0.396875,0.396875 0 0 0 0.396875,0.39688 m -0.926042,2.38125 a 2.1166667,2.1166667 0 0 1 -2.116666,-2.11667 2.1166667,2.1166667 0 0 1 2.116666,-2.11666 2.1166667,2.1166667 0 0 1 2.116667,2.11666 2.1166667,2.1166667 0 0 1 -2.116667,2.11667 m 0,-4.7625 c -1.463145,0 -2.645833,1.19062 -2.645833,2.64583 a 2.6458333,2.6458333 0 0 0 2.645833,2.64584 2.6458333,2.6458333 0 0 0 2.645834,-2.64584 2.6458333,2.6458333 0 0 0 -2.645834,-2.64583 z"
         inkscape:connector-curvature="0"
         style="stroke-width:0.26458332" />
      <path
         id="path4511"
         d="m 9.5698847,127.99739 a 2.1166667,2.1166667 0 0 0 -2.116667,-2.11666 2.1166667,2.1166667 0 0 0 -2.116666,2.11666 2.1166667,2.1166667 0 0 0 2.116666,2.11667 2.1166667,2.1166667 0 0 0 2.116667,-2.11667 m 0.5291673,0 a 2.6458333,2.6458333 0 0 1 -2.6458343,2.64584 2.6458333,2.6458333 0 0 1 -2.645833,-2.64584 2.6458333,2.6458333 0 0 1 2.645833,-2.64583 2.6458333,2.6458333 0 0 1 2.6458343,2.64583 m -3.1750003,-0.66146 c 0,0.21167 -0.185209,0.39688 -0.396875,0.39688 -0.211667,0 -0.396875,-0.18521 -0.396875,-0.39688 0,-0.21166 0.185208,-0.39687 0.396875,-0.39687 0.211666,0 0.396875,0.18521 0.396875,0.39687 m 1.852083,0 c 0,0.21167 -0.185208,0.39688 -0.396875,0.39688 -0.211667,0 -0.396875,-0.18521 -0.396875,-0.39688 0,-0.21166 0.185208,-0.39687 0.396875,-0.39687 0.211667,0 0.396875,0.18521 0.396875,0.39687 m -1.322917,2.04523 c -0.46302,0 -0.870479,-0.19314 -1.108604,-0.47889 l 0.375709,-0.37571 c 0.119062,0.1905 0.402166,0.32544 0.732895,0.32544 0.33073,0 0.613834,-0.13494 0.732896,-0.32544 l 0.375709,0.37571 c -0.238125,0.28575 -0.645584,0.47889 -1.108605,0.47889 z"
         inkscape:connector-curvature="0"
         style="fill:#ff0000;fill-opacity:1;stroke-width:0.26458332" />
    </g>
    <ellipse
       ry="2.3800685"
       rx="2.3387277"
       cy="162.07077"
       cx="93.342964"
       id="path4602-4"
       style="display:inline;opacity:1;fill:#f6ff51;fill-opacity:1;stroke:none;stroke-width:0.11598136;stroke-miterlimit:4;stroke-dasharray:none;stroke-opacity:1;paint-order:fill markers stroke" />
    <path
       inkscape:connector-curvature="0"
       id="path4543"
       d="m 71.160343,159.73177 a 2.6458333,2.6458333 0 0 0 -2.645833,2.64584 2.6458333,2.6458333 0 0 0 2.645833,2.64583 2.6458333,2.6458333 0 0 0 2.645834,-2.64583 2.6458333,2.6458333 0 0 0 -2.645834,-2.64584 z m 0,0.52917 a 2.1166667,2.1166667 0 0 1 2.116667,2.11667 2.1166667,2.1166667 0 0 1 -2.116667,2.11666 2.1166667,2.1166667 0 0 1 -2.116667,-2.11666 2.1166667,2.1166667 0 0 1 2.116667,-2.11667 z"
       style="opacity:1;stroke-width:0.26458332" />
    <path
       inkscape:connector-curvature="0"
       id="path4541"
       d="m 70.619512,161.70459 c 0,0.21167 -0.185209,0.39688 -0.396875,0.39688 -0.211667,0 -0.396875,-0.18521 -0.396875,-0.39688 0,-0.21166 0.185208,-0.39687 0.396875,-0.39687 0.211666,0 0.396875,0.18521 0.396875,0.39687"
       style="opacity:1;stroke-width:0.26458332" />
    <path
       inkscape:connector-curvature="0"
       id="path4539"
       d="m 72.471595,161.70459 c 0,0.21167 -0.185208,0.39688 -0.396875,0.39688 -0.211667,0 -0.396875,-0.18521 -0.396875,-0.39688 0,-0.21166 0.185208,-0.39687 0.396875,-0.39687 0.211667,0 0.396875,0.18521 0.396875,0.39687"
       style="opacity:1;stroke-width:0.26458332" />
    <path
       inkscape:connector-curvature="0"
       id="path4511-8"
       d="m 77.219921,158.18546 c 0.46302,0 0.870479,0.19314 1.108604,0.47889 l -0.375709,0.37571 c -0.119062,-0.1905 -0.402166,-0.32544 -0.732895,-0.32544 -0.33073,0 -0.613834,0.13494 -0.732896,0.32544 l -0.375709,-0.37571 c 0.238125,-0.28575 0.645584,-0.47889 1.108605,-0.47889 z"
       style="opacity:1;stroke-width:0.26458332" />
    <circle
       inkscape:export-ydpi="96"
       inkscape:export-xdpi="96"
       inkscape:export-filename="D:\Documents\School\Y3S1\CMPUT 301\A1\burghard-FeelsBook\icons\happy_icon.png"
       r="6.3499999"
       cy="134.06746"
       cx="119.07252"
       id="path4735-9"
       style="display:inline;opacity:1;fill:#f6ff51;fill-opacity:1;stroke:none;stroke-width:0.59109062;stroke-miterlimit:4;stroke-dasharray:none;stroke-opacity:1;paint-order:fill markers stroke" />
    <g
       inkscape:export-ydpi="96"
       inkscape:export-xdpi="96"
       inkscape:export-filename="D:\Documents\School\Y3S1\CMPUT 301\A1\burghard-FeelsBook\icons\happy_icon.png"
       transform="matrix(1.5,0,0,1.5,74.583538,-57.467983)"
       clip-path="url(#clipPath4784)"
       id="g4782">
      <g
         id="g4780"
         inkscape:label="Clip">
        <path
           style="display:inline;opacity:1;stroke-width:0.26458332"
           d="m 29.659319,125.04446 a 2.6458333,2.6458333 0 0 0 -2.645833,2.64584 2.6458333,2.6458333 0 0 0 2.645833,2.64583 2.6458333,2.6458333 0 0 0 2.645834,-2.64583 2.6458333,2.6458333 0 0 0 -2.645834,-2.64584 z m 0,0.52917 a 2.1166667,2.1166667 0 0 1 2.116667,2.11667 2.1166667,2.1166667 0 0 1 -2.116667,2.11666 2.1166667,2.1166667 0 0 1 -2.116667,-2.11666 2.1166667,2.1166667 0 0 1 2.116667,-2.11667 z"
           id="path4543-2"
           inkscape:connector-curvature="0" />
        <path
           style="display:inline;opacity:1;stroke-width:0.26458332"
           d="m 29.118488,127.01728 c 0,0.21167 -0.185209,0.39688 -0.396875,0.39688 -0.211667,0 -0.396875,-0.18521 -0.396875,-0.39688 0,-0.21166 0.185208,-0.39687 0.396875,-0.39687 0.211666,0 0.396875,0.18521 0.396875,0.39687"
           id="path4541-0"
           inkscape:connector-curvature="0" />
        <path
           style="display:inline;opacity:1;stroke-width:0.26458332"
           d="m 30.970571,127.01728 c 0,0.21167 -0.185208,0.39688 -0.396875,0.39688 -0.211667,0 -0.396875,-0.18521 -0.396875,-0.39688 0,-0.21166 0.185208,-0.39687 0.396875,-0.39687 0.211667,0 0.396875,0.18521 0.396875,0.39687"
           id="path4539-8"
           inkscape:connector-curvature="0" />
        <path
           style="display:inline;opacity:1;stroke-width:0.26458332"
           d="m 29.647654,129.06251 c -0.46302,0 -0.870479,-0.19314 -1.108604,-0.47889 l 0.375709,-0.37571 c 0.119062,0.1905 0.402166,0.32544 0.732895,0.32544 0.33073,0 0.613834,-0.13494 0.732896,-0.32544 l 0.375709,0.37571 c -0.238125,0.28575 -0.645584,0.47889 -1.108605,0.47889 z"
           id="path4511-8-4"
           inkscape:connector-curvature="0" />
      </g>
    </g>
    <ellipse
       ry="2.3800685"
       rx="2.3387277"
       cy="167.56914"
       cx="90.626259"
       id="path4602"
       style="opacity:1;fill:#51e8ff;fill-opacity:1;stroke:none;stroke-width:0.11598136;stroke-miterlimit:4;stroke-dasharray:none;stroke-opacity:1;paint-order:fill markers stroke" />
    <circle
       inkscape:export-ydpi="96"
       inkscape:export-xdpi="96"
       inkscape:export-filename="D:\Documents\School\Y3S1\CMPUT 301\A1\burghard-FeelsBook\icons\sad_icon.png"
       r="6.3499999"
       cy="156.36331"
       cx="145.81433"
       id="path4735-0"
       style="display:inline;opacity:1;fill:#51adff;fill-opacity:1;stroke:none;stroke-width:0.59109062;stroke-miterlimit:4;stroke-dasharray:none;stroke-opacity:1;paint-order:fill markers stroke" />
    <g
       inkscape:export-ydpi="96"
       inkscape:export-xdpi="96"
       inkscape:export-filename="D:\Documents\School\Y3S1\CMPUT 301\A1\burghard-FeelsBook\icons\sad_icon.png"
       transform="translate(71.648315,40.721027)"
       clip-path="url(#clipPath4757)"
       id="g4755">
      <g
         id="g4753"
         inkscape:label="Clip">
        <path
           style="display:inline;opacity:1;stroke-width:0.39687496"
           d="m 74.166014,111.67353 a 3.96875,3.9687499 0 0 0 -3.96875,3.96876 3.96875,3.9687499 0 0 0 3.96875,3.96875 3.96875,3.9687499 0 0 0 3.968751,-3.96875 3.96875,3.9687499 0 0 0 -3.968751,-3.96876 z m 0,0.79376 a 3.1750001,3.175 0 0 1 3.175002,3.175 3.1750001,3.175 0 0 1 -3.175002,3.17499 3.1750001,3.175 0 0 1 -3.175001,-3.17499 3.1750001,3.175 0 0 1 3.175001,-3.175 z"
           id="path4543-5"
           inkscape:connector-curvature="0" />
        <path
           style="display:inline;opacity:1;stroke-width:0.39687496"
           d="m 73.354767,114.63276 c 0,0.31751 -0.277813,0.59532 -0.595312,0.59532 -0.317501,0 -0.595313,-0.27781 -0.595313,-0.59532 0,-0.31749 0.277812,-0.5953 0.595313,-0.5953 0.317499,0 0.595312,0.27781 0.595312,0.5953"
           id="path4541-1"
           inkscape:connector-curvature="0" />
        <path
           style="display:inline;opacity:1;stroke-width:0.39687496"
           d="m 76.132893,114.63276 c 0,0.31751 -0.277812,0.59532 -0.595312,0.59532 -0.317502,0 -0.595313,-0.27781 -0.595313,-0.59532 0,-0.31749 0.277811,-0.5953 0.595313,-0.5953 0.3175,0 0.595312,0.27781 0.595312,0.5953"
           id="path4539-2"
           inkscape:connector-curvature="0" />
        <path
           style="display:inline;opacity:1;stroke-width:0.39687496"
           d="m 74.148518,116.26394 c 0.694531,0 1.305718,0.28971 1.662906,0.71833 l -0.563562,0.56357 c -0.178593,-0.28575 -0.603251,-0.48816 -1.099344,-0.48816 -0.496095,0 -0.920751,0.20241 -1.099344,0.48816 l -0.563564,-0.56357 c 0.357188,-0.42862 0.968376,-0.71833 1.662908,-0.71833 z"
           id="path4511-8-5"
           inkscape:connector-curvature="0" />
      </g>
    </g>
    <ellipse
       ry="2.3800685"
       rx="2.3387277"
       cy="166.97266"
       cx="96.532143"
       id="path4602-7"
       style="display:inline;opacity:1;fill:#ff5555;fill-opacity:1;stroke:none;stroke-width:0.11598136;stroke-miterlimit:4;stroke-dasharray:none;stroke-opacity:1;paint-order:fill markers stroke" />
    <path
       inkscape:connector-curvature="0"
       id="path4541-8"
       d="m 65.825235,162.03303 c 0,0.20064 -0.342306,0.37621 -0.73351,0.37621 -0.391206,0 -0.73351,-0.17557 -0.73351,-0.37621 0,-0.20064 0.342304,-0.3762 0.73351,-0.3762 0.391204,0 0.73351,0.17556 0.73351,0.3762"
       style="display:inline;opacity:1;stroke-width:0.35020667" />
    <path
       inkscape:connector-curvature="0"
       id="path4539-9"
       d="m 76.877526,160.80717 c 0,0.21167 -0.185208,0.39688 -0.396875,0.39688 -0.211667,0 -0.396875,-0.18521 -0.396875,-0.39688 0,-0.21166 0.185208,-0.39687 0.396875,-0.39687 0.211667,0 0.396875,0.18521 0.396875,0.39687"
       style="display:inline;opacity:1;stroke-width:0.26458332" />
    <path
       inkscape:connector-curvature="0"
       id="path4539-9-3"
       d="m 76.990772,162.69678 c 0,0.21167 -0.185208,0.39688 -0.396875,0.39688 -0.211667,0 -0.396875,-0.18521 -0.396875,-0.39688 0,-0.21166 0.185208,-0.39687 0.396875,-0.39687 0.211667,0 0.396875,0.18521 0.396875,0.39687"
       style="display:inline;opacity:1;stroke-width:0.26458332" />
    <path
       inkscape:connector-curvature="0"
       id="path4707"
       d="m 128.62704,161.46837 a 2.1166667,2.1166667 0 0 0 -2.11666,-2.11667 2.1166667,2.1166667 0 0 0 -2.11667,2.11667 2.1166667,2.1166667 0 0 0 2.11667,2.11667 2.1166667,2.1166667 0 0 0 2.11666,-2.11667"
       style="stroke-width:0.26458332" />
    <path
       id="path4690"
       d="m 71.148678,163.74982 c -0.46302,0 -0.870479,-0.19315 -1.108604,-0.4789 l 0.375709,-0.3757 c 0.119062,0.1905 0.402166,0.32543 0.732895,0.32543 0.33073,0 0.613834,-0.13493 0.732896,-0.32543 l 0.375709,0.3757 c -0.238125,0.28575 -0.645584,0.4789 -1.108605,0.4789 z"
       style="stroke-width:0.26458332"
       inkscape:connector-curvature="0" />
    <path
       style="opacity:1;fill:#ff5555;fill-opacity:1;stroke:none;stroke-width:0.59109062;stroke-miterlimit:4;stroke-dasharray:none;stroke-opacity:1;paint-order:fill markers stroke"
       d="m 122.01718,150.12317 a 6.3499999,6.3499999 0 0 1 -6.35,6.35 6.3499999,6.3499999 0 0 1 -6.35,-6.35 6.3499999,6.3499999 0 0 1 6.35,-6.35 6.3499999,6.3499999 0 0 1 6.35,6.35 z"
       id="path4735"
       inkscape:connector-curvature="0" />
    <path
       inkscape:export-ydpi="96"
       inkscape:export-xdpi="96"
       inkscape:export-filename="D:\Documents\School\Y3S1\CMPUT 301\A1\burghard-FeelsBook\icons\angry_icon.png"
       style="display:inline;opacity:1;stroke-width:0.39687496"
       d="m 115.66719,146.15442 a 3.96875,3.96875 0 0 0 -3.96875,3.96876 3.96875,3.96875 0 0 0 3.96875,3.96874 3.96875,3.96875 0 0 0 3.96875,-3.96874 3.96875,3.96875 0 0 0 -3.96875,-3.96876 z m 0,0.79374 a 3.1750001,3.1750001 0 0 1 3.175,3.17501 3.1750001,3.1750001 0 0 1 -3.175,3.17499 3.1750001,3.1750001 0 0 1 -3.17501,-3.17499 3.1750001,3.1750001 0 0 1 3.17501,-3.17501 z"
       id="path4543-9"
       inkscape:connector-curvature="0" />
    <path
       inkscape:export-ydpi="96"
       inkscape:export-xdpi="96"
       inkscape:export-filename="D:\Documents\School\Y3S1\CMPUT 301\A1\burghard-FeelsBook\icons\angry_icon.png"
       style="display:inline;opacity:1;stroke-width:0.39687496"
       d="m 115.64969,150.74481 c 0.69453,0 1.30572,0.28971 1.66291,0.71834 l -0.56357,0.56356 c -0.17859,-0.28575 -0.60325,-0.48816 -1.09934,-0.48816 -0.4961,0 -0.92075,0.20241 -1.09934,0.48816 l -0.56357,-0.56356 c 0.35719,-0.42862 0.96838,-0.71834 1.66291,-0.71834 z"
       id="path4511-8-58"
       inkscape:connector-curvature="0" />
    <path
       inkscape:export-ydpi="96"
       inkscape:export-xdpi="96"
       inkscape:export-filename="D:\Documents\School\Y3S1\CMPUT 301\A1\burghard-FeelsBook\icons\angry_icon.png"
       style="stroke-width:0.39687496"
       d="m 114.85594,149.11364 c 0,0.3175 -0.27781,0.59532 -0.59531,0.59532 -0.3175,0 -0.59532,-0.27782 -0.59532,-0.59532 v -0.59531 l 1.19063,0.59531"
       id="path4705"
       inkscape:connector-curvature="0" />
    <path
       inkscape:export-ydpi="96"
       inkscape:export-xdpi="96"
       inkscape:export-filename="D:\Documents\School\Y3S1\CMPUT 301\A1\burghard-FeelsBook\icons\angry_icon.png"
       style="fill:#000000;fill-opacity:1;stroke-width:0.39687496"
       d="m 117.63406,149.11364 c 0,0.3175 -0.27781,0.59532 -0.59531,0.59532 -0.3175,0 -0.59531,-0.27782 -0.59531,-0.59532 l 1.19062,-0.59531 v 0.59531"
       id="path4703"
       inkscape:connector-curvature="0" />
    <path
       inkscape:connector-curvature="0"
       id="path4511-8-0"
       d="m 68.466156,159.28798 c -0.15473,0.15473 -0.355452,0.22634 -0.530502,0.21044 l -10e-7,-0.25111 c 0.103428,0.0239 0.243148,-0.0256 0.353669,-0.13616 0.110523,-0.11052 0.160016,-0.25024 0.136164,-0.35367 h 0.251107 c 0.01591,0.17506 -0.05571,0.37577 -0.210437,0.5305 z"
       style="display:inline;opacity:1;stroke-width:0.12504114" />
    <path
       inkscape:connector-curvature="0"
       id="path4511-8-0-0"
       d="m 73.361749,158.63543 c -0.15473,-0.15473 -0.226335,-0.35545 -0.210437,-0.5305 h 0.251107 c -0.02385,0.10343 0.02564,0.24315 0.136163,0.35367 0.110522,0.11052 0.250242,0.16002 0.353669,0.13616 v 0.25111 c -0.175064,0.0159 -0.375772,-0.0557 -0.530502,-0.21044 z"
       style="display:inline;opacity:1;stroke-width:0.12504114" />
    <circle
       inkscape:export-ydpi="96"
       inkscape:export-xdpi="96"
       inkscape:export-filename="D:\Documents\School\Y3S1\CMPUT 301\A1\burghard-FeelsBook\icons\surprised_icon.png"
       r="6.3499999"
       cy="140.77415"
       cx="101.27102"
       id="path4735-2"
       style="display:inline;opacity:1;fill:#ff9955;fill-opacity:1;stroke:none;stroke-width:0.59109062;stroke-miterlimit:4;stroke-dasharray:none;stroke-opacity:1;paint-order:fill markers stroke" />
    <path
       style="display:inline;opacity:1;stroke-width:0.39687496"
       d="m 101.27102,136.80541 a 3.96875,3.96875 0 0 0 -3.968752,3.96876 3.96875,3.96875 0 0 0 3.968752,3.96874 3.96875,3.96875 0 0 0 3.96875,-3.96874 3.96875,3.96875 0 0 0 -3.96875,-3.96876 z m 0,0.79375 a 3.1750001,3.1750001 0 0 1 3.175,3.17501 3.1750001,3.1750001 0 0 1 -3.175,3.17499 3.1750001,3.1750001 0 0 1 -3.175004,-3.17499 3.1750001,3.1750001 0 0 1 3.175004,-3.17501 z"
       id="path4543-0"
       inkscape:connector-curvature="0" />
    <path
       style="display:inline;opacity:1;stroke-width:0.39687496"
       d="m 100.45977,139.76464 c 0,0.3175 -0.27781,0.59532 -0.595312,0.59532 -0.317501,0 -0.595313,-0.27782 -0.595313,-0.59532 0,-0.31749 0.277812,-0.59531 0.595313,-0.59531 0.317502,0 0.595312,0.27782 0.595312,0.59531"
       id="path4541-2"
       inkscape:connector-curvature="0" />
    <path
       style="display:inline;opacity:1;stroke-width:0.39687496"
       d="m 103.23789,139.76464 c 0,0.3175 -0.27781,0.59532 -0.59531,0.59532 -0.3175,0 -0.59531,-0.27782 -0.59531,-0.59532 0,-0.31749 0.27781,-0.59531 0.59531,-0.59531 0.3175,0 0.59531,0.27782 0.59531,0.59531"
       id="path4539-5"
       inkscape:connector-curvature="0" />
    <path
       style="display:inline;opacity:1;stroke-width:0.7138797"
       d="m 102.32625,141.962 c 0,0.60099 -0.47488,1.12686 -1.01759,1.12686 -0.54271,0 -1.01758,-0.52587 -1.01758,-1.12686 0,-0.60096 0.47487,-1.12683 1.01758,-1.12683 0.54271,0 1.01759,0.52587 1.01759,1.12683"
       id="path4541-8-9"
       inkscape:connector-curvature="0" />
    <path
       sodipodi:nodetypes="cc"
       inkscape:connector-curvature="0"
       id="path4895"
       d="m 74.479989,161.74243 c 0.71179,-0.20584 0.789238,-0.21218 1.498797,-0.003"
       style="opacity:1;vector-effect:none;fill:#ff0202;fill-opacity:0.55813958;stroke:#000000;stroke-width:0.5291667;stroke-linecap:round;stroke-linejoin:miter;stroke-miterlimit:4;stroke-dasharray:none;stroke-dashoffset:0;stroke-opacity:1" />
    <circle
       inkscape:export-ydpi="96"
       inkscape:export-xdpi="96"
       inkscape:export-filename="D:\Documents\School\Y3S1\CMPUT 301\A1\burghard-FeelsBook\icons\sad_icon.png"
       r="6.3499999"
       cy="150.45981"
       cx="133.14859"
       id="path4735-0-1"
       style="display:inline;opacity:1;fill:#383838;fill-opacity:1;stroke:none;stroke-width:0.59109062;stroke-miterlimit:4;stroke-dasharray:none;stroke-opacity:1;paint-order:fill markers stroke" />
    <path
       inkscape:export-ydpi="96"
       inkscape:export-xdpi="96"
       inkscape:export-filename="D:\Documents\School\Y3S1\CMPUT 301\A1\burghard-FeelsBook\icons\sad_icon.png"
       inkscape:connector-curvature="0"
       id="path4543-21"
       d="m 133.14858,146.49105 a 3.96875,3.9687499 0 0 0 -3.96875,3.96876 3.96875,3.9687499 0 0 0 3.96875,3.96875 3.96875,3.9687499 0 0 0 3.96876,-3.96875 3.96875,3.9687499 0 0 0 -3.96876,-3.96876 z m 0,0.79376 a 3.1750001,3.1750001 0 0 1 3.175,3.175 3.1750001,3.1750001 0 0 1 -3.175,3.17499 3.1750001,3.1750001 0 0 1 -3.175,-3.17499 3.1750001,3.1750001 0 0 1 3.175,-3.175 z"
       style="display:inline;opacity:1;fill:#ffffff;fill-opacity:1;stroke-width:0.39687499" />
    <path
       inkscape:export-ydpi="96"
       inkscape:export-xdpi="96"
       inkscape:export-filename="D:\Documents\School\Y3S1\CMPUT 301\A1\burghard-FeelsBook\icons\sad_icon.png"
       sodipodi:nodetypes="cc"
       inkscape:connector-curvature="0"
       id="path4895-5"
       d="m 132.13203,151.94715 c 0.82625,-0.27043 1.44038,-0.25206 2.11289,-0.007"
       style="display:inline;opacity:1;vector-effect:none;fill:#ffffff;fill-opacity:1;stroke:#fcfcfc;stroke-width:1.030653;stroke-linecap:round;stroke-linejoin:miter;stroke-miterlimit:4;stroke-dasharray:none;stroke-dashoffset:0;stroke-opacity:1" />
    <path
       inkscape:export-ydpi="96"
       inkscape:export-xdpi="96"
       inkscape:export-filename="D:\Documents\School\Y3S1\CMPUT 301\A1\burghard-FeelsBook\icons\sad_icon.png"
       style="display:inline;fill:#ffffff;fill-opacity:1;stroke-width:0.39687496"
       d="m 135.11546,149.45028 c 0,0.3175 -0.27781,0.59532 -0.59531,0.59532 -0.3175,0 -0.59531,-0.27782 -0.59531,-0.59532 v -0.59531 l 1.19062,0.59531"
       id="path4705-5"
       inkscape:connector-curvature="0" />
    <path
       inkscape:export-ydpi="96"
       inkscape:export-xdpi="96"
       inkscape:export-filename="D:\Documents\School\Y3S1\CMPUT 301\A1\burghard-FeelsBook\icons\sad_icon.png"
       style="display:inline;fill:#ffffff;fill-opacity:1;stroke-width:0.39687496"
       d="m 132.33734,149.45028 c 0,0.3175 -0.27782,0.59532 -0.59532,0.59532 -0.3175,0 -0.59531,-0.27782 -0.59531,-0.59532 l 1.19063,-0.59531 v 0.59531"
       id="path4703-6"
       inkscape:connector-curvature="0" />
    <path
       inkscape:connector-curvature="0"
       id="path4715"
       d="m 70.233761,162.17062 c 0.344268,-0.31297 0.521618,-0.47364 0.521618,-0.67707 0,-0.15648 -0.130405,-0.28063 -0.28689,-0.28063 -0.08972,0 -0.175264,0.0374 -0.234728,0.10437 -0.05947,-0.0668 -0.14501,-0.10437 -0.240988,-0.10437 -0.156485,0 -0.28063,0.1304 -0.28063,0.28688 0,0.19718 0.17735,0.35785 0.521618,0.67082"
       style="stroke-width:0.10432357" />
    <path
       inkscape:connector-curvature="0"
       id="path4713"
       d="m 61.931215,146.23474 c -0.79375,-0.87312 -1.201209,-1.32291 -1.717146,-1.32291 -0.396875,0 -0.711729,0.33073 -0.711729,0.7276 0,0.22754 0.09525,0.4445 0.264583,0.59531 -0.169333,0.15082 -0.264583,0.36777 -0.264583,0.61119 0,0.39688 0.330729,0.71173 0.727604,0.71173 0.500062,0 0.907521,-0.44979 1.701271,-1.32292"
       style="stroke-width:0.26458332" />
    <path
       inkscape:connector-curvature="0"
       id="path4711"
       d="m 62.367777,146.23474 c 0.791104,0.87313 1.198563,1.32292 1.7145,1.32292 0.396875,0 0.711729,-0.33073 0.711729,-0.7276 0,-0.22755 -0.09525,-0.4445 -0.264583,-0.59532 0.169333,-0.15081 0.264583,-0.36777 0.264583,-0.61118 0,-0.39688 -0.330729,-0.71173 -0.727604,-0.71173 -0.500062,0 -0.907521,0.44979 -1.698625,1.32291"
       style="stroke-width:0.26458332" />
    <path
       inkscape:connector-curvature="0"
       id="path4698"
       d="m 62.148173,146.4517 c -0.873125,0.79375 -1.322917,1.20121 -1.322917,1.71715 0,0.39687 0.330729,0.71173 0.727604,0.71173 0.227542,0 0.4445,-0.0953 0.595313,-0.26459 0.150812,0.16934 0.367771,0.26459 0.611187,0.26459 0.396875,0 0.71173,-0.33073 0.71173,-0.72761 0,-0.50006 -0.449792,-0.90752 -1.322917,-1.70127 z"
       style="stroke-width:0.26458332" />
    <path
       inkscape:connector-curvature="0"
       id="path4543-1"
       d="m 83.551401,151.74741 a 2.6458333,2.6458333 0 0 0 -2.645833,2.64584 2.6458333,2.6458333 0 0 0 2.645833,2.64583 2.6458333,2.6458333 0 0 0 2.645834,-2.64583 2.6458333,2.6458333 0 0 0 -2.645834,-2.64584 z m 0,0.52917 a 2.1166667,2.1166667 0 0 1 2.116667,2.11667 2.1166667,2.1166667 0 0 1 -2.116667,2.11666 2.1166667,2.1166667 0 0 1 -2.116667,-2.11666 2.1166667,2.1166667 0 0 1 2.116667,-2.11667 z"
       style="opacity:1;stroke-width:0.26458332" />
    <path
       id="path4690-6"
       d="m 83.539736,155.76546 c -0.46302,0 -0.870479,-0.19315 -1.108604,-0.4789 l 0.375709,-0.3757 c 0.119062,0.1905 0.402166,0.32543 0.732895,0.32543 0.33073,0 0.613834,-0.13493 0.732896,-0.32543 l 0.375709,0.3757 c -0.238125,0.28575 -0.645584,0.4789 -1.108605,0.4789 z"
       style="stroke-width:0.26458332"
       inkscape:connector-curvature="0" />
    <path
       inkscape:connector-curvature="0"
       id="path4715-1"
       d="m 82.60595,154.11943 c 0.293227,-0.26657 0.444283,-0.40342 0.444283,-0.57669 0,-0.13328 -0.111071,-0.23902 -0.244355,-0.23902 -0.07642,0 -0.14928,0.0319 -0.199928,0.0889 -0.05065,-0.0569 -0.123511,-0.0889 -0.205259,-0.0889 -0.133285,0 -0.239025,0.11107 -0.239025,0.24435 0,0.16794 0.151057,0.30479 0.444284,0.57136"
       style="stroke-width:0.08885669" />
    <path
       inkscape:connector-curvature="0"
       id="path4715-9-0"
       d="m 84.450735,154.10369 c 0.293227,-0.26657 0.444283,-0.40342 0.444283,-0.57669 0,-0.13328 -0.111071,-0.23902 -0.244356,-0.23902 -0.07642,0 -0.149279,0.0319 -0.199927,0.0889 -0.05065,-0.0569 -0.123511,-0.0889 -0.205259,-0.0889 -0.133285,0 -0.239025,0.11107 -0.239025,0.24435 0,0.16794 0.151057,0.30479 0.444284,0.57136"
       style="stroke-width:0.08885669" />
    <path
       inkscape:connector-curvature="0"
       id="path4715-0"
       d="m 72.084732,162.17574 c 0.344268,-0.31297 0.521618,-0.47364 0.521618,-0.67707 0,-0.15648 -0.130405,-0.28063 -0.28689,-0.28063 -0.08972,0 -0.175264,0.0374 -0.234728,0.10437 -0.05947,-0.0668 -0.14501,-0.10437 -0.240988,-0.10437 -0.156484,0 -0.28063,0.1304 -0.28063,0.28688 0,0.19718 0.17735,0.35785 0.521618,0.67082"
       style="stroke-width:0.10432357" />
    <circle
       inkscape:export-ydpi="96"
       inkscape:export-xdpi="96"
       inkscape:export-filename="D:\Documents\School\Y3S1\CMPUT 301\A1\burghard-FeelsBook\icons\surprised_icon.png"
       r="6.3499999"
       cy="140.99187"
       cx="84.562881"
       id="path4735-2-8"
       style="display:inline;opacity:1;fill:#ff80d6;fill-opacity:1;stroke:none;stroke-width:0.59109062;stroke-miterlimit:4;stroke-dasharray:none;stroke-opacity:1;paint-order:fill markers stroke" />
    <path
       inkscape:connector-curvature="0"
       id="path4543-6"
       d="m 84.562877,137.02311 a 3.96875,3.96875 0 0 0 -3.968749,3.96876 3.96875,3.96875 0 0 0 3.968749,3.96874 3.96875,3.96875 0 0 0 3.968753,-3.96874 3.96875,3.96875 0 0 0 -3.968753,-3.96876 z m 0,0.79375 a 3.1750001,3.1750001 0 0 1 3.175002,3.17501 3.1750001,3.1750001 0 0 1 -3.175002,3.17499 3.1750001,3.1750001 0 0 1 -3.175001,-3.17499 3.1750001,3.1750001 0 0 1 3.175001,-3.17501 z"
       style="opacity:1;stroke-width:0.39687496" />
    <path
       id="path4690-2"
       d="m 84.545379,143.05018 c -0.69453,0 -1.305718,-0.28972 -1.662906,-0.71835 l 0.563564,-0.56355 c 0.178593,0.28575 0.603249,0.48815 1.099342,0.48815 0.496097,0 0.920753,-0.2024 1.099346,-0.48815 l 0.563564,0.56355 c -0.357188,0.42863 -0.968376,0.71835 -1.66291,0.71835 z"
       style="stroke-width:0.39687496"
       inkscape:connector-curvature="0" />
    <path
       inkscape:connector-curvature="0"
       id="path4715-9"
       d="m 83.173004,140.68138 c 0.516402,-0.46945 0.782427,-0.71046 0.782427,-1.0156 0,-0.23472 -0.195607,-0.42095 -0.430333,-0.42095 -0.13458,0 -0.262898,0.0561 -0.352094,0.15656 -0.08921,-0.1002 -0.217514,-0.15656 -0.36148,-0.15656 -0.234728,0 -0.420947,0.1956 -0.420947,0.43032 0,0.29577 0.266025,0.53678 0.782427,1.00623"
       style="stroke-width:0.15648536" />
    <path
       inkscape:connector-curvature="0"
       id="path4715-0-0"
       d="m 85.949462,140.68906 c 0.516404,-0.46945 0.782429,-0.71046 0.782429,-1.0156 0,-0.23472 -0.195608,-0.42095 -0.430337,-0.42095 -0.13458,0 -0.262896,0.0561 -0.352092,0.15656 -0.0892,-0.1002 -0.217515,-0.15656 -0.361481,-0.15656 -0.234726,0 -0.420944,0.1956 -0.420944,0.43032 0,0.29577 0.266025,0.53678 0.782425,1.00623"
       style="stroke-width:0.15648536" />
  </g>
</svg>
